<?xml version="1.0" encoding="utf-8"?>
<!-- Generator: Adobe Illustrator 16.0.0, SVG Export Plug-In . SVG Version: 6.00 Build 0)  -->
<!DOCTYPE svg PUBLIC "-//W3C//DTD SVG 1.1//EN" "http://www.w3.org/Graphics/SVG/1.1/DTD/svg11.dtd">
<svg version="1.1"
	 id="svg2" xmlns:rdf="http://www.w3.org/1999/02/22-rdf-syntax-ns#" xmlns:cc="http://creativecommons.org/ns#" xmlns:dc="http://purl.org/dc/elements/1.1/"
	 xmlns="http://www.w3.org/2000/svg" xmlns:xlink="http://www.w3.org/1999/xlink" x="0px" y="0px" width="612px" height="792px"
	 viewBox="0 0 612 792" enable-background="new 0 0 612 792" xml:space="preserve">
<filter  id="filter5861" height="1.6636" x="-.019656" y="-.33181" width="1.0393" color-interpolation-filters="sRGB">
	<feGaussianBlur  id="feGaussianBlur5863" stdDeviation="5.2928364"></feGaussianBlur>
</filter>
<filter  id="filter5772" color-interpolation-filters="sRGB">
	<feGaussianBlur  id="feGaussianBlur5774" stdDeviation="2.3024161"></feGaussianBlur>
</filter>
<filter  id="filter5654" height="1.6288" x="-.14479" y="-.31440" width="1.2896" color-interpolation-filters="sRGB">
	<feGaussianBlur  id="feGaussianBlur5656" stdDeviation="1.5490091"></feGaussianBlur>
</filter>
<filter  id="filter5627" height="2.8432" x="-.050637" y="-.92160" width="1.1013" color-interpolation-filters="sRGB">
	<feGaussianBlur  id="feGaussianBlur5629" stdDeviation="2.866006"></feGaussianBlur>
</filter>
<filter  id="filter5531" color-interpolation-filters="sRGB">
	<feGaussianBlur  id="feGaussianBlur5533" stdDeviation="1.4972754"></feGaussianBlur>
</filter>
<filter  id="filter5497" height="1.6922" x="-.084691" y="-.34609" width="1.1694" color-interpolation-filters="sRGB">
	<feGaussianBlur  id="feGaussianBlur5499" stdDeviation="4.9235726"></feGaussianBlur>
</filter>
<filter  id="filter5491" height="1.7387" x="-.17907" y="-.36934" width="1.3581" color-interpolation-filters="sRGB">
	<feGaussianBlur  id="feGaussianBlur5493" stdDeviation="3.6754285"></feGaussianBlur>
</filter>
<filter  id="filter5271" color-interpolation-filters="sRGB">
	<feGaussianBlur  id="feGaussianBlur5273" stdDeviation="0.88034583"></feGaussianBlur>
</filter>
<filter  id="filter5267" height="2.6833" x="-.10886" y="-.84164" width="1.2177" color-interpolation-filters="sRGB">
	<feGaussianBlur  id="feGaussianBlur5269" stdDeviation="0.88034583"></feGaussianBlur>
</filter>
<filter  id="filter5263" height="2.6833" x="-.10886" y="-.84164" width="1.2177" color-interpolation-filters="sRGB">
	<feGaussianBlur  id="feGaussianBlur5265" stdDeviation="0.88034583"></feGaussianBlur>
</filter>
<filter  id="filter5259" height="2.6833" x="-.10886" y="-.84164" width="1.2177" color-interpolation-filters="sRGB">
	<feGaussianBlur  id="feGaussianBlur5261" stdDeviation="0.88034583"></feGaussianBlur>
</filter>
<filter  id="filter5255" height="2.6833" x="-.10886" y="-.84164" width="1.2177" color-interpolation-filters="sRGB">
	<feGaussianBlur  id="feGaussianBlur5257" stdDeviation="0.88034583"></feGaussianBlur>
</filter>
<filter  id="filter5251" height="2.6833" x="-.10886" y="-.84164" width="1.2177" color-interpolation-filters="sRGB">
	<feGaussianBlur  id="feGaussianBlur5253" stdDeviation="0.88034583"></feGaussianBlur>
</filter>
<filter  id="filter5247" height="2.6833" x="-.10886" y="-.84164" width="1.2177" color-interpolation-filters="sRGB">
	<feGaussianBlur  id="feGaussianBlur5249" stdDeviation="0.88034583"></feGaussianBlur>
</filter>
<filter  id="filter5243" height="2.6833" x="-.10886" y="-.84164" width="1.2177" color-interpolation-filters="sRGB">
	<feGaussianBlur  id="feGaussianBlur5245" stdDeviation="0.88034583"></feGaussianBlur>
</filter>
<filter  id="filter5239" height="2.6833" x="-.10886" y="-.84164" width="1.2177" color-interpolation-filters="sRGB">
	<feGaussianBlur  id="feGaussianBlur5241" stdDeviation="0.88034583"></feGaussianBlur>
</filter>
<filter  id="filter5235" height="2.6833" x="-.10886" y="-.84164" width="1.2177" color-interpolation-filters="sRGB">
	<feGaussianBlur  id="feGaussianBlur5237" stdDeviation="0.88034583"></feGaussianBlur>
</filter>
<filter  id="filter5231" height="2.6833" x="-.10886" y="-.84164" width="1.2177" color-interpolation-filters="sRGB">
	<feGaussianBlur  id="feGaussianBlur5233" stdDeviation="0.88034583"></feGaussianBlur>
</filter>
<filter  id="filter5227" height="2.6833" x="-.10886" y="-.84164" width="1.2177" color-interpolation-filters="sRGB">
	<feGaussianBlur  id="feGaussianBlur5229" stdDeviation="0.88034583"></feGaussianBlur>
</filter>
<filter  id="filter5223" height="2.6833" x="-.10886" y="-.84164" width="1.2177" color-interpolation-filters="sRGB">
	<feGaussianBlur  id="feGaussianBlur5225" stdDeviation="0.88034583"></feGaussianBlur>
</filter>
<filter  id="filter5219" height="2.6833" x="-.10886" y="-.84164" width="1.2177" color-interpolation-filters="sRGB">
	<feGaussianBlur  id="feGaussianBlur5221" stdDeviation="0.88034583"></feGaussianBlur>
</filter>
<filter  id="filter5215" height="2.6833" x="-.10886" y="-.84164" width="1.2177" color-interpolation-filters="sRGB">
	<feGaussianBlur  id="feGaussianBlur5217" stdDeviation="0.88034583"></feGaussianBlur>
</filter>
<filter  id="filter5211" height="2.6833" x="-.10886" y="-.84164" width="1.2177" color-interpolation-filters="sRGB">
	<feGaussianBlur  id="feGaussianBlur5213" stdDeviation="0.88034583"></feGaussianBlur>
</filter>
<filter  id="filter5207" height="2.6833" x="-.10886" y="-.84164" width="1.2177" color-interpolation-filters="sRGB">
	<feGaussianBlur  id="feGaussianBlur5209" stdDeviation="0.88034583"></feGaussianBlur>
</filter>
<filter  id="filter5203" height="2.6833" x="-.10886" y="-.84164" width="1.2177" color-interpolation-filters="sRGB">
	<feGaussianBlur  id="feGaussianBlur5205" stdDeviation="0.88034583"></feGaussianBlur>
</filter>
<filter  id="filter5199" height="2.6833" x="-.10886" y="-.84164" width="1.2177" color-interpolation-filters="sRGB">
	<feGaussianBlur  id="feGaussianBlur5201" stdDeviation="0.88034583"></feGaussianBlur>
</filter>
<filter  id="filter5195" height="2.6833" x="-.10886" y="-.84164" width="1.2177" color-interpolation-filters="sRGB">
	<feGaussianBlur  id="feGaussianBlur5197" stdDeviation="0.88034583"></feGaussianBlur>
</filter>
<filter  id="filter5191" height="2.6833" x="-.10886" y="-.84164" width="1.2177" color-interpolation-filters="sRGB">
	<feGaussianBlur  id="feGaussianBlur5193" stdDeviation="0.88034583"></feGaussianBlur>
</filter>
<filter  id="filter5187" height="2.6833" x="-.10886" y="-.84164" width="1.2177" color-interpolation-filters="sRGB">
	<feGaussianBlur  id="feGaussianBlur5189" stdDeviation="0.88034583"></feGaussianBlur>
</filter>
<filter  id="filter5183" height="2.6833" x="-.10886" y="-.84164" width="1.2177" color-interpolation-filters="sRGB">
	<feGaussianBlur  id="feGaussianBlur5185" stdDeviation="0.88034583"></feGaussianBlur>
</filter>
<filter  id="filter5179" height="2.6833" x="-.10886" y="-.84164" width="1.2177" color-interpolation-filters="sRGB">
	<feGaussianBlur  id="feGaussianBlur5181" stdDeviation="0.88034583"></feGaussianBlur>
</filter>
<filter  id="filter5175" height="2.6833" x="-.10886" y="-.84164" width="1.2177" color-interpolation-filters="sRGB">
	<feGaussianBlur  id="feGaussianBlur5177" stdDeviation="0.88034583"></feGaussianBlur>
</filter>
<filter  id="filter5171" height="3.0934" x="-.12935" y="-1.0467" width="1.2587" color-interpolation-filters="sRGB">
	<feGaussianBlur  id="feGaussianBlur5173" stdDeviation="0.88034583"></feGaussianBlur>
</filter>
<filter  id="filter5167" height="3.0934" x="-.12935" y="-1.0467" width="1.2587" color-interpolation-filters="sRGB">
	<feGaussianBlur  id="feGaussianBlur5169" stdDeviation="0.88034583"></feGaussianBlur>
</filter>
<filter  id="filter5163" height="3.0934" x="-.12935" y="-1.0467" width="1.2587" color-interpolation-filters="sRGB">
	<feGaussianBlur  id="feGaussianBlur5165" stdDeviation="0.88034583"></feGaussianBlur>
</filter>
<filter  id="filter5159" height="3.0934" x="-.12935" y="-1.0467" width="1.2587" color-interpolation-filters="sRGB">
	<feGaussianBlur  id="feGaussianBlur5161" stdDeviation="0.88034583"></feGaussianBlur>
</filter>
<filter  id="filter5155" height="2.774" x="-.10962" y="-0.887" width="1.2192" color-interpolation-filters="sRGB">
	<feGaussianBlur  id="feGaussianBlur5157" stdDeviation="0.88034583"></feGaussianBlur>
</filter>
<filter  id="filter5151" height="2.774" x="-.10962" y="-0.887" width="1.2192" color-interpolation-filters="sRGB">
	<feGaussianBlur  id="feGaussianBlur5153" stdDeviation="0.88034583"></feGaussianBlur>
</filter>
<filter  id="filter5147" height="2.6465" x="-.10174" y="-.82326" width="1.2035" color-interpolation-filters="sRGB">
	<feGaussianBlur  id="feGaussianBlur5149" stdDeviation="0.88034583"></feGaussianBlur>
</filter>
<filter  id="filter5143" height="2.6465" x="-.10174" y="-.82326" width="1.2035" color-interpolation-filters="sRGB">
	<feGaussianBlur  id="feGaussianBlur5145" stdDeviation="0.88034583"></feGaussianBlur>
</filter>
<filter  id="filter5139" height="2.5744" x="-.078659" y="-.78718" width="1.1573" color-interpolation-filters="sRGB">
	<feGaussianBlur  id="feGaussianBlur5141" stdDeviation="0.88034583"></feGaussianBlur>
</filter>
<filter  id="filter5135" height="2.5744" x="-.078659" y="-.78718" width="1.1573" color-interpolation-filters="sRGB">
	<feGaussianBlur  id="feGaussianBlur5137" stdDeviation="0.88034583"></feGaussianBlur>
</filter>
<filter  id="filter5131" height="2.4754" x="-.073717" y="-.73772" width="1.1474" color-interpolation-filters="sRGB">
	<feGaussianBlur  id="feGaussianBlur5133" stdDeviation="0.88034583"></feGaussianBlur>
</filter>
<filter  id="filter5127" height="2.4754" x="-.073717" y="-.73772" width="1.1474" color-interpolation-filters="sRGB">
	<feGaussianBlur  id="feGaussianBlur5129" stdDeviation="0.88034583"></feGaussianBlur>
</filter>
<filter  id="filter5123" height="2.3882" x="-.069359" y="-.69411" width="1.1387" color-interpolation-filters="sRGB">
	<feGaussianBlur  id="feGaussianBlur5125" stdDeviation="0.88034583"></feGaussianBlur>
</filter>
<filter  id="filter5119" height="2.3882" x="-.069359" y="-.69411" width="1.1387" color-interpolation-filters="sRGB">
	<feGaussianBlur  id="feGaussianBlur5121" stdDeviation="0.88034583"></feGaussianBlur>
</filter>
<filter  id="filter5115" height="2.4679" x="-.073341" y="-.73396" width="1.1467" color-interpolation-filters="sRGB">
	<feGaussianBlur  id="feGaussianBlur5117" stdDeviation="0.88034583"></feGaussianBlur>
</filter>
<filter  id="filter5111" height="2.4679" x="-.073341" y="-.73396" width="1.1467" color-interpolation-filters="sRGB">
	<feGaussianBlur  id="feGaussianBlur5113" stdDeviation="0.88034583"></feGaussianBlur>
</filter>
<filter  id="filter5107" height="1.8007" x="-.072790" y="-.40034" width="1.1456" color-interpolation-filters="sRGB">
	<feGaussianBlur  id="feGaussianBlur5109" stdDeviation="0.88034583"></feGaussianBlur>
</filter>
<filter  id="filter5103" height="1.8007" x="-.072790" y="-.40034" width="1.1456" color-interpolation-filters="sRGB">
	<feGaussianBlur  id="feGaussianBlur5105" stdDeviation="0.88034583"></feGaussianBlur>
</filter>
<filter  id="filter5099" height="1.2548" x="-.072068" y="-.12742" width="1.1441" color-interpolation-filters="sRGB">
	<feGaussianBlur  id="feGaussianBlur5101" stdDeviation="0.88034583"></feGaussianBlur>
</filter>
<filter  id="filter5095" height="1.2548" x="-.072068" y="-.12742" width="1.1441" color-interpolation-filters="sRGB">
	<feGaussianBlur  id="feGaussianBlur5097" stdDeviation="0.88034583"></feGaussianBlur>
</filter>
<filter  id="filter5091" color-interpolation-filters="sRGB">
	<feGaussianBlur  id="feGaussianBlur5093" stdDeviation="0.88034583"></feGaussianBlur>
</filter>
<filter  id="filter4751" height="2.328" x="-.012221" y="-0.664" width="1.0244" color-interpolation-filters="sRGB">
	<feGaussianBlur  id="feGaussianBlur4753" stdDeviation="0.87607025"></feGaussianBlur>
</filter>
<filter  id="filter4741" height="1.648" x="-.0061132" y="-0.324" width="1.0122" color-interpolation-filters="sRGB">
	<feGaussianBlur  id="feGaussianBlur4743" stdDeviation="0.42748008"></feGaussianBlur>
</filter>
<filter  id="filter4735" color-interpolation-filters="sRGB">
	<feGaussianBlur  id="feGaussianBlur4737" stdDeviation="1.1505019"></feGaussianBlur>
</filter>
<g id="layer1" transform="translate(0 -832.36)">
	<g id="g5879" transform="matrix(.47654 0 0 .47654 121.84 554.7)">
		<path id="path3884" opacity="0.9632" fill="none" stroke="#E1E1E1" stroke-width="13.4" enable-background="new    " d="
			M209.663,1619.912c558.807,49.414,410.511-261.848,302.764-227.07"/>
		<path id="path3886" fill="none" stroke="#828282" stroke-width="5.349" d="M196.743,1611.781
			c570.26,84.947,433.889-254.627,323.433-218.729"/>
		<path id="path5633" fill="none" stroke="#000000" stroke-width="15.8" stroke-linecap="round" d="M24.344,1353.691l78.303,33.932
			l70.473-26.102"/>
		<path id="path5631" fill="none" stroke="#A59898" stroke-width="7.9" d="M389.768,1163.15l101.794-44.371l52.201,26.101
			l41.762-18.271"/>
		<path id="path5595" fill="none" stroke="#DDDDDD" stroke-width="18.261" d="M808.2,1501.814l-77.094-132.35"/>
		<g id="path5593" filter="url(#filter5531)">
			<line fill="none" stroke="#8D8383" stroke-width="6.661" x1="812.905" y1="1503.964" x2="735.809" y2="1371.597"/>
		</g>
		<path id="path5591" fill="none" stroke="#463C3C" stroke-width="16.121" d="M750.97,1385.184l-81.727-134.605"/>
		<path id="path5589" fill="none" stroke="#DDDDDD" stroke-width="11.861" d="M743.697,1383.068l-77.096-132.349"/>
		<g id="g3902" transform="translate(.52775 -9.4996)">
			<path id="path2879" d="M820.836,1370.903c-104.964-17.103-190.07,53.394-190.07,157.432c0,104.036,85.102,202.221,190.07,219.322
				c104.962,17.103,190.017-53.351,190.017-157.386s-85.049-202.257-190.017-219.359V1370.903z M818.254,1423.485
				c76.836,12.52,139.15,84.437,139.15,160.595c0,76.159-62.312,127.719-139.15,115.196
				c-76.836-12.519-139.15-84.385-139.15-160.542C679.104,1462.574,741.417,1410.963,818.254,1423.485L818.254,1423.485z"/>
			
				<path id="path3896" fill-opacity="0" stroke="#140E0E" stroke-width="3.8" stroke-linecap="round" stroke-linejoin="round" stroke-dasharray="3.8,3.8" d="
				M1004.29,1580.424c0,102.794-83.895,174.908-187.382,161.065c-103.488-13.841-187.382-108.392-187.382-211.188
				c0-102.794,83.893-174.908,187.382-161.066C920.394,1383.076,1004.29,1477.628,1004.29,1580.424z"/>
		</g>
		<g id="g4402" transform="matrix(.96699 .012989 0 .85207 467.83 -115.62)">
			<path id="path4404" fill="none" stroke="#000000" d="M321.404,1955.118l-108.411,29.049"/>
			<path id="path4406" fill="none" stroke="#000000" d="M469.753,1831.668l-79.363,79.365"/>
			<path id="path4408" fill="none" stroke="#000000" d="M375.417,1903.187l29.05-108.413"/>
			<path id="path4410" fill="none" stroke="#000000" d="M358.544,1903.884l-29.048-108.41"/>
			<path id="path4412" fill="none" stroke="#000000" d="M276.063,2061.081l56.117-97.197"/>
			<path id="path4414" fill="none" stroke="#000000" d="M318.45,1919.797l-97.199-56.117"/>
			<path id="path4416" fill="none" stroke="#000000" d="M273.791,1810.162l56.117,97.196"/>
			<path id="path4418" fill="none" stroke="#000000" d="M507.829,1896.193l-108.411,29.049"/>
			<path id="path4420" fill="none" stroke="#000000" d="M508.505,1971.206l-108.411-29.05"/>
			<path id="path4422" fill="none" stroke="#000000" d="M392.233,1957.218l79.363,79.362"/>
			<path id="path4424" fill="none" stroke="#000000" d="M406.996,2074.547l-29.048-108.413"/>
			<path id="path4426" fill="none" stroke="#000000" d="M332,2075.245l29.05-108.411"/>
			<g id="g4428" transform="translate(-610.52 107.32)">
				<path id="path4430" fill="#AAAAAA" d="M1015.717,1830.06c0,30.994-25.708,56.117-57.423,56.117
					c-31.714,0-57.423-25.123-57.423-56.117c0-30.991,25.708-56.117,57.423-56.117
					C990.008,1773.943,1015.717,1799.069,1015.717,1830.06z"/>
				<path id="path4432" fill="#CCCCCF" d="M1005.231,1830.054c0,25.33-21.01,45.863-46.93,45.863
					c-25.92,0.001-46.93-20.533-46.93-45.863s21.01-45.865,46.93-45.865C984.221,1784.188,1005.231,1804.722,1005.231,1830.054z"/>
				<path id="path4434" d="M960.903,1793.504c0,1.674-1.354,3.03-3.028,3.029c-1.672-0.001-3.026-1.356-3.026-3.028
					c0-1.674,1.354-3.029,3.026-3.028C959.548,1790.478,960.903,1791.833,960.903,1793.504z"/>
				<path id="path4436" d="M960.903,1866.945c0,1.671-1.354,3.027-3.028,3.028c-1.672-0.001-3.026-1.356-3.026-3.027
					c0-1.674,1.354-3.03,3.026-3.029C959.548,1863.916,960.903,1865.274,960.903,1866.945z"/>
				<path id="path4438" d="M960.903,1793.504c0,1.674-1.354,3.03-3.028,3.029c-1.672-0.001-3.026-1.356-3.026-3.028
					c0-1.674,1.354-3.029,3.026-3.028C959.548,1790.478,960.903,1791.833,960.903,1793.504z"/>
				<path id="path4440" d="M960.903,1866.945c0,1.671-1.354,3.027-3.028,3.028c-1.672-0.001-3.026-1.356-3.026-3.027
					c0-1.674,1.354-3.03,3.026-3.029C959.548,1863.916,960.903,1865.274,960.903,1866.945z"/>
				<path id="path4442" d="M978.857,1799.948c-0.835,1.449-2.687,1.946-4.135,1.109c-1.45-0.837-1.945-2.688-1.11-4.137
					c0.837-1.448,2.689-1.943,4.137-1.109C979.198,1796.648,979.694,1798.5,978.857,1799.948z"/>
				<path id="path4444" d="M942.137,1863.544c-0.835,1.448-2.687,1.946-4.135,1.109c-1.45-0.836-1.945-2.688-1.108-4.136
					c0.835-1.449,2.687-1.946,4.135-1.109C942.478,1860.244,942.974,1862.096,942.137,1863.544z"/>
				<path id="path4446" d="M978.857,1799.948c-0.835,1.449-2.687,1.946-4.135,1.109c-1.45-0.837-1.945-2.688-1.11-4.137
					c0.837-1.448,2.689-1.943,4.137-1.109C979.198,1796.648,979.694,1798.5,978.857,1799.948z"/>
				<path id="path4448" d="M942.137,1863.544c-0.835,1.448-2.687,1.946-4.135,1.109c-1.45-0.836-1.945-2.688-1.108-4.136
					c0.835-1.449,2.687-1.946,4.135-1.109C942.478,1860.244,942.974,1862.096,942.137,1863.544z"/>
				<path id="path4450" d="M991.18,1814.489c-1.449,0.837-3.302,0.341-4.137-1.108c-0.837-1.447-0.341-3.299,1.108-4.137
					c1.447-0.835,3.3-0.339,4.137,1.108C993.123,1811.802,992.628,1813.654,991.18,1814.489z"/>
				<path id="path4452" d="M927.584,1851.209c-1.447,0.835-3.3,0.339-4.137-1.108c-0.835-1.449-0.339-3.302,1.108-4.137
					c1.45-0.838,3.3-0.339,4.137,1.108C929.53,1848.522,929.031,1850.372,927.584,1851.209z"/>
				<path id="path4454" d="M991.18,1814.489c-1.449,0.837-3.302,0.341-4.137-1.108c-0.837-1.447-0.341-3.299,1.108-4.137
					c1.447-0.835,3.3-0.339,4.137,1.108C993.123,1811.802,992.628,1813.654,991.18,1814.489z"/>
				<path id="path4456" d="M927.584,1851.209c-1.447,0.835-3.3,0.339-4.137-1.108c-0.835-1.449-0.339-3.302,1.108-4.137
					c1.45-0.838,3.3-0.339,4.137,1.108C929.53,1848.522,929.031,1850.372,927.584,1851.209z"/>
				<path id="path4458" d="M994.507,1833.202c-1.674,0.001-3.028-1.356-3.028-3.028c0-1.674,1.354-3.029,3.028-3.028
					c1.672,0.001,3.026,1.356,3.026,3.028C997.534,1831.848,996.179,1833.203,994.507,1833.202z"/>
				<path id="path4460" d="M921.154,1833.202c-1.672,0.001-3.028-1.356-3.028-3.027s1.356-3.029,3.028-3.028
					c1.672,0.001,3.028,1.356,3.028,3.028C924.183,1831.848,922.826,1833.203,921.154,1833.202z"/>
				<path id="path4462" d="M994.507,1833.202c-1.674,0.001-3.028-1.356-3.028-3.028c0-1.674,1.354-3.029,3.028-3.028
					c1.672,0.001,3.026,1.356,3.026,3.028C997.534,1831.848,996.179,1833.203,994.507,1833.202z"/>
				<path id="path4464" d="M921.154,1833.202c-1.672,0.001-3.028-1.356-3.028-3.027s1.356-3.029,3.028-3.028
					c1.672,0.001,3.028,1.356,3.028,3.028C924.183,1831.848,922.826,1833.203,921.154,1833.202z"/>
				<path id="path4466" d="M988.15,1851.193c-1.449-0.837-1.945-2.688-1.108-4.137c0.837-1.448,2.687-1.946,4.137-1.109
					c1.447,0.836,1.943,2.688,1.108,4.137C991.449,1851.532,989.597,1852.029,988.15,1851.193z"/>
				<path id="path4468" d="M924.553,1814.473c-1.447-0.837-1.943-2.688-1.108-4.137c0.837-1.449,2.689-1.946,4.137-1.109
					c1.45,0.837,1.945,2.688,1.108,4.137C927.855,1814.812,926.003,1815.309,924.553,1814.473z"/>
				<path id="path4470" d="M988.15,1851.193c-1.449-0.837-1.945-2.688-1.108-4.137c0.837-1.448,2.687-1.946,4.137-1.109
					c1.447,0.836,1.943,2.688,1.108,4.137C991.449,1851.532,989.597,1852.029,988.15,1851.193z"/>
				<path id="path4472" d="M924.553,1814.473c-1.447-0.837-1.943-2.688-1.108-4.137c0.837-1.449,2.689-1.946,4.137-1.109
					c1.45,0.837,1.945,2.688,1.108,4.137C927.855,1814.812,926.003,1815.309,924.553,1814.473z"/>
				<path id="path4474" d="M973.609,1863.531c-0.837-1.449-0.339-3.299,1.108-4.137c1.447-0.835,3.3-0.339,4.137,1.108
					c0.835,1.449,0.339,3.302-1.108,4.137C976.297,1865.477,974.447,1864.981,973.609,1863.531z"/>
				<path id="path4476" d="M936.89,1799.883c-0.837-1.45-0.339-3.299,1.108-4.137c1.448-0.835,3.3-0.339,4.137,1.108
					c0.835,1.45,0.339,3.302-1.108,4.137C939.577,1801.829,937.725,1801.33,936.89,1799.883z"/>
				<path id="path4478" d="M973.609,1863.531c-0.837-1.449-0.339-3.299,1.108-4.137c1.447-0.835,3.3-0.339,4.137,1.108
					c0.835,1.449,0.339,3.302-1.108,4.137C976.297,1865.477,974.447,1864.981,973.609,1863.531z"/>
				<path id="path4480" d="M936.89,1799.883c-0.837-1.45-0.339-3.299,1.108-4.137c1.448-0.835,3.3-0.339,4.137,1.108
					c0.835,1.45,0.339,3.302-1.108,4.137C939.577,1801.829,937.725,1801.33,936.89,1799.883z"/>
				
					<linearGradient id="path4482_1_" gradientUnits="userSpaceOnUse" x1="1185.6707" y1="424.3374" x2="1194.7006" y2="369.5974" gradientTransform="matrix(0.2213 -0.0031 0 -0.2033 691.5647 1892.5797)">
					<stop  offset="0" style="stop-color:#FDCA01"/>
					<stop  offset="1" style="stop-color:#816647"/>
				</linearGradient>
				<path id="path4482" fill="url(#path4482_1_)" d="M975.506,1830.05c0,9.286-7.703,16.816-17.206,16.814
					c-9.5,0-17.204-7.528-17.204-16.814s7.703-16.813,17.204-16.814C967.803,1813.236,975.506,1820.764,975.506,1830.05z"/>
			</g>
			<path id="path4484" fill="none" stroke="#000000" d="M348.664,2079.967v-112.237"/>
			<path id="path4486" fill="none" stroke="#000000" d="M362.549,1906.159l56.117-97.2"/>
			<path id="path4488" fill="none" stroke="#000000" d="M364.804,1962.638l56.117,97.196"/>
			<path id="path4490" fill="none" stroke="#000000" d="M319.762,1952.495l-97.199,56.117"/>
			<path id="path4492" fill="none" stroke="#000000" d="M472.162,1861.394l-97.199,56.117"/>
			<path id="path4494" fill="none" stroke="#000000" d="M314.743,1936.41l-112.237-0.001"/>
			<path id="path4496" fill="none" stroke="#000000" d="M492.223,1933.786l-112.237,0.001"/>
			<path id="path4498" fill="none" stroke="#000000" d="M473.468,2006.351l-97.199-56.117"/>
			<path id="path4500" fill="none" stroke="#000000" d="M251.83,1825.726l79.361,79.36"/>
			<path id="path4502" fill="none" stroke="#000000" d="M320.722,1919.971l-108.411-29.048"/>
			<path id="path4504" fill="none" stroke="#000000" d="M348.664,1894.617v-112.234"/>
			<path id="path4506" fill="none" stroke="#000000" d="M327.821,1972.079l-79.361,79.362"/>
		</g>
		<path id="path5537" fill="#AAAAAA" stroke="#BEB8B8" stroke-width="0.5" d="M635.669,1586.095
			c-21.665-224.989,160.729-249.26,238.575-202.852l10.359-10.282c-167.076-101.312-307.836,77.357-248.926,213.134H635.669z"/>
		<path id="path5407" fill="none" stroke="#796F6F" stroke-width="11.8" d="M-121.83,1236.223l185.314,15.661l49.593,49.594
			l60.033-7.83"/>
		<path id="path5405" fill="#CCCCCF" stroke="#000000" stroke-width="0.9663" d="M318.373,1488.611
			c15.178-2.515,63.241-20.116,63.241-20.116l30.356,22.63l12.648,7.545l12.648,20.116l70.831-2.514
			c0,0,22.833,13.546,25.296,25.143c12.349,58.181-55.652,52.806-55.652,52.806l-111.305,10.058l-75.89-5.029l7.589-82.979
			l20.238-27.661V1488.611z"/>
		<g id="rect4815" filter="url(#filter5091)">
			
				<radialGradient id="SVGID_1_" cx="948.6963" cy="537.9274" r="21.03" gradientTransform="matrix(-3.3712 0 0 1.7305 3713.1521 503.7043)" gradientUnits="userSpaceOnUse">
				<stop  offset="0" style="stop-color:#333333"/>
				<stop  offset="1" style="stop-color:#333333;stop-opacity:0"/>
			</radialGradient>
			<rect x="458.433" y="1392.279" fill="url(#SVGID_1_)" width="33.837" height="65.749"/>
			
				<rect x="458.433" y="1392.279" fill="none" stroke="#3C3C3C" stroke-width="2.3119" stroke-linecap="round" stroke-linejoin="round" width="33.837" height="65.749"/>
		</g>
		<g id="path4817" filter="url(#filter5095)">
			
				<radialGradient id="SVGID_2_" cx="828.4058" cy="273.0009" r="9.5146" gradientTransform="matrix(-4.0231 0 0 0.6206 3779.8479 1136.0214)" gradientUnits="userSpaceOnUse">
				<stop  offset="0" style="stop-color:#333333"/>
				<stop  offset="1" style="stop-color:#333333;stop-opacity:0"/>
			</radialGradient>
			<path fill="url(#SVGID_2_)" d="M417.233,1321.91v-27.982c0,0,20.657-5.565,31.21-5.381c8.793,0.153,25.829,5.381,25.829,5.381
				s5.381,25.828,1.076,26.905c-4.306,1.076-58.115,2.152-58.115,1.076V1321.91z"/>
			<path fill="none" stroke="#000000" d="M417.233,1321.91v-27.982c0,0,20.657-5.565,31.21-5.381
				c8.793,0.153,25.829,5.381,25.829,5.381s5.381,25.828,1.076,26.905c-4.306,1.076-58.115,2.152-58.115,1.076V1321.91z"/>
		</g>
		<g id="path4819" filter="url(#filter5099)">
			
				<radialGradient id="SVGID_3_" cx="807.542" cy="266.1697" r="9.5143" gradientTransform="matrix(-4.0231 0 0 0.6206 3779.8479 1137.0399)" gradientUnits="userSpaceOnUse">
				<stop  offset="0" style="stop-color:#333333"/>
				<stop  offset="1" style="stop-color:#333333;stop-opacity:0"/>
			</radialGradient>
			<path fill="url(#SVGID_3_)" d="M501.167,1318.688v-27.982c0,0,20.655-5.564,31.208-5.38c8.793,0.152,25.829,5.38,25.829,5.38
				s5.381,25.828,1.076,26.905C554.977,1318.687,501.167,1319.763,501.167,1318.688L501.167,1318.688z"/>
			<path fill="none" stroke="#000000" d="M501.167,1318.688v-27.982c0,0,20.655-5.564,31.208-5.38
				c8.793,0.152,25.829,5.38,25.829,5.38s5.381,25.828,1.076,26.905C554.977,1318.687,501.167,1319.763,501.167,1318.688
				L501.167,1318.688z"/>
		</g>
		<g id="rect4821" filter="url(#filter5103)">
			
				<radialGradient id="SVGID_4_" cx="802.1525" cy="-22.1494" r="6.6516" gradientTransform="matrix(-4.176 0 0 0.2921 3795.5518 1334.8395)" gradientUnits="userSpaceOnUse">
				<stop  offset="0" style="stop-color:#333333"/>
				<stop  offset="1" style="stop-color:#333333;stop-opacity:0"/>
			</radialGradient>
			<rect x="431.644" y="1325.807" fill="url(#SVGID_4_)" width="28.206" height="5.128"/>
		</g>
		<g id="rect4823" filter="url(#filter5107)">
			
				<radialGradient id="SVGID_5_" cx="782.0552" cy="-27.9468" r="6.6507" gradientTransform="matrix(-4.176 0 0 0.2921 3795.5518 1335.4521)" gradientUnits="userSpaceOnUse">
				<stop  offset="0" style="stop-color:#333333"/>
				<stop  offset="1" style="stop-color:#333333;stop-opacity:0"/>
			</radialGradient>
			<rect x="515.576" y="1324.726" fill="url(#SVGID_5_)" width="28.206" height="5.128"/>
		</g>
		<g id="rect4825" filter="url(#filter5111)">
			
				<radialGradient id="SVGID_6_" cx="797.6973" cy="-143.5076" r="4.9966" gradientTransform="matrix(-4.203 0 0 0.2244 3798.2554 1369.8804)" gradientUnits="userSpaceOnUse">
				<stop  offset="0" style="stop-color:#333333"/>
				<stop  offset="1" style="stop-color:#333333;stop-opacity:0"/>
			</radialGradient>
			<rect x="431.528" y="1336.273" fill="url(#SVGID_6_)" width="27.994" height="2.797"/>
		</g>
		<g id="rect4827" filter="url(#filter5115)">
			
				<radialGradient id="SVGID_7_" cx="777.8767" cy="-148.8643" r="4.9954" fx="777.8797" fy="-148.8643" gradientTransform="matrix(-4.203 0 0 0.2244 3798.2554 1370.4911)" gradientUnits="userSpaceOnUse">
				<stop  offset="0" style="stop-color:#333333"/>
				<stop  offset="1" style="stop-color:#333333;stop-opacity:0"/>
			</radialGradient>
			<rect x="514.829" y="1335.681" fill="url(#SVGID_7_)" width="27.994" height="2.797"/>
		</g>
		<g id="rect4829" filter="url(#filter5119)">
			
				<radialGradient id="SVGID_8_" cx="832.1724" cy="-116.7439" r="5.5419" gradientTransform="matrix(-4.0065 0 0 0.214 3778.3408 1368.9565)" gradientUnits="userSpaceOnUse">
				<stop  offset="0" style="stop-color:#333333"/>
				<stop  offset="1" style="stop-color:#333333;stop-opacity:0"/>
			</radialGradient>
			<rect x="429.413" y="1342.499" fill="url(#SVGID_8_)" width="29.602" height="2.958"/>
		</g>
		<g id="rect4831" filter="url(#filter5123)">
			
				<radialGradient id="SVGID_9_" cx="810.1857" cy="-121.5105" r="5.5431" gradientTransform="matrix(-4.0065 0 0 0.214 3778.3408 1369.3643)" gradientUnits="userSpaceOnUse">
				<stop  offset="0" style="stop-color:#333333"/>
				<stop  offset="1" style="stop-color:#333333;stop-opacity:0"/>
			</radialGradient>
			<rect x="517.507" y="1341.887" fill="url(#SVGID_9_)" width="29.602" height="2.958"/>
		</g>
		<g id="rect4833" filter="url(#filter5127)">
			
				<radialGradient id="SVGID_10_" cx="794.4329" cy="-22.3542" r="4.9484" gradientTransform="matrix(-4.2213 0 0 0.2254 3800.3337 1357.8872)" gradientUnits="userSpaceOnUse">
				<stop  offset="0" style="stop-color:#333333"/>
				<stop  offset="1" style="stop-color:#333333;stop-opacity:0"/>
			</radialGradient>
			<rect x="432.878" y="1351.456" fill="url(#SVGID_10_)" width="27.852" height="2.783"/>
		</g>
		<g id="rect4835" filter="url(#filter5131)">
			
				<radialGradient id="SVGID_11_" cx="774.7966" cy="-27.6987" r="4.9484" gradientTransform="matrix(-4.2213 0 0 0.2254 3800.3337 1358.5)" gradientUnits="userSpaceOnUse">
				<stop  offset="0" style="stop-color:#333333"/>
				<stop  offset="1" style="stop-color:#333333;stop-opacity:0"/>
			</radialGradient>
			<rect x="515.77" y="1350.865" fill="url(#SVGID_11_)" width="27.853" height="2.783"/>
		</g>
		<g id="rect4837" filter="url(#filter5135)">
			
				<radialGradient id="SVGID_12_" cx="756.7118" cy="63.322" r="4.5263" gradientTransform="matrix(-4.4604 0 0 0.2291 3824.6733 1347.1912)" gradientUnits="userSpaceOnUse">
				<stop  offset="0" style="stop-color:#333333"/>
				<stop  offset="1" style="stop-color:#333333;stop-opacity:0"/>
			</radialGradient>
			<rect x="436.362" y="1360.394" fill="url(#SVGID_12_)" width="26.103" height="2.608"/>
		</g>
		<g id="rect4839" filter="url(#filter5139)">
			
				<radialGradient id="SVGID_13_" cx="739.297" cy="59.2275" r="4.5251" gradientTransform="matrix(-4.4604 0 0 0.2291 3824.6733 1347.599)" gradientUnits="userSpaceOnUse">
				<stop  offset="0" style="stop-color:#333333"/>
				<stop  offset="1" style="stop-color:#333333;stop-opacity:0"/>
			</radialGradient>
			<rect x="514.034" y="1359.864" fill="url(#SVGID_13_)" width="26.103" height="2.608"/>
		</g>
		<g id="rect4841" filter="url(#filter5143)">
			
				<radialGradient id="SVGID_14_" cx="631.5787" cy="213.3044" r="3.3684" gradientTransform="matrix(-5.5184 0 0 0.2834 3932.9568 1310.1941)" gradientUnits="userSpaceOnUse">
				<stop  offset="0" style="stop-color:#333333"/>
				<stop  offset="1" style="stop-color:#333333;stop-opacity:0"/>
			</radialGradient>
			<rect x="437.555" y="1369.406" fill="url(#SVGID_14_)" width="20.181" height="2.494"/>
		</g>
		<g id="rect4843" filter="url(#filter5147)">
			
				<radialGradient id="SVGID_15_" cx="620.6971" cy="209.9949" r="3.369" gradientTransform="matrix(-5.5184 0 0 0.2834 3932.9568 1310.6019)" gradientUnits="userSpaceOnUse">
				<stop  offset="0" style="stop-color:#333333"/>
				<stop  offset="1" style="stop-color:#333333;stop-opacity:0"/>
			</radialGradient>
			<rect x="497.609" y="1368.875" fill="url(#SVGID_15_)" width="20.181" height="2.494"/>
		</g>
		<g id="rect4845" filter="url(#filter5151)">
			
				<radialGradient id="SVGID_16_" cx="600.4954" cy="252.1813" r="2.9634" gradientTransform="matrix(-5.8586 0 0 0.2987 3967.8601 1299.8564)" gradientUnits="userSpaceOnUse">
				<stop  offset="0" style="stop-color:#333333"/>
				<stop  offset="1" style="stop-color:#333333;stop-opacity:0"/>
			</radialGradient>
			<rect x="440.428" y="1374.018" fill="url(#SVGID_16_)" width="18.729" height="2.314"/>
		</g>
		<g id="rect4847" filter="url(#filter5155)">
			
				<radialGradient id="SVGID_17_" cx="590.9806" cy="249.177" r="2.9647" gradientTransform="matrix(-5.8586 0 0 0.2987 3967.8601 1300.2642)" gradientUnits="userSpaceOnUse">
				<stop  offset="0" style="stop-color:#333333"/>
				<stop  offset="1" style="stop-color:#333333;stop-opacity:0"/>
			</radialGradient>
			<rect x="496.18" y="1373.528" fill="url(#SVGID_17_)" width="18.729" height="2.315"/>
		</g>
		<g id="rect4849" filter="url(#filter5159)">
			
				<radialGradient id="SVGID_18_" cx="539.3203" cy="314.0305" r="2.3411" gradientTransform="matrix(-6.6688 0 0 0.3175 4050.7024 1282.4644)" gradientUnits="userSpaceOnUse">
				<stop  offset="0" style="stop-color:#333333"/>
				<stop  offset="1" style="stop-color:#333333;stop-opacity:0"/>
			</radialGradient>
			<rect x="446.119" y="1381.185" fill="url(#SVGID_18_)" width="15.872" height="1.962"/>
		</g>
		<g id="rect4851" filter="url(#filter5163)">
			
				<radialGradient id="SVGID_19_" cx="532.2299" cy="311.4648" r="2.3414" fx="532.2299" fy="311.4626" gradientTransform="matrix(-6.6689 0 0 0.3175 4050.6858 1282.8722)" gradientUnits="userSpaceOnUse">
				<stop  offset="0" style="stop-color:#333333"/>
				<stop  offset="1" style="stop-color:#333333;stop-opacity:0"/>
			</radialGradient>
			<rect x="493.347" y="1380.777" fill="url(#SVGID_19_)" width="15.872" height="1.962"/>
		</g>
		<g id="rect4853" filter="url(#filter5167)">
			
				<radialGradient id="SVGID_20_" cx="539.3121" cy="336.1893" r="2.3405" gradientTransform="matrix(-6.6689 0 0 0.3175 4050.6858 1279.6097)" gradientUnits="userSpaceOnUse">
				<stop  offset="0" style="stop-color:#333333"/>
				<stop  offset="1" style="stop-color:#333333;stop-opacity:0"/>
			</radialGradient>
			<rect x="446.119" y="1385.365" fill="url(#SVGID_20_)" width="15.872" height="1.961"/>
		</g>
		<g id="rect4855" filter="url(#filter5171)">
			
				<radialGradient id="SVGID_21_" cx="532.2299" cy="333.6174" r="2.3414" gradientTransform="matrix(-6.6689 0 0 0.3175 4050.6858 1280.0176)" gradientUnits="userSpaceOnUse">
				<stop  offset="0" style="stop-color:#333333"/>
				<stop  offset="1" style="stop-color:#333333;stop-opacity:0"/>
			</radialGradient>
			<rect x="493.347" y="1384.958" fill="url(#SVGID_21_)" width="15.872" height="1.962"/>
		</g>
		<g id="rect4857" filter="url(#filter5175)">
			
				<radialGradient id="SVGID_22_" cx="602.5815" cy="364.2891" r="3.121" gradientTransform="matrix(-5.8263 0 0 0.297 3964.4514 1286.0067)" gradientUnits="userSpaceOnUse">
				<stop  offset="0" style="stop-color:#333333"/>
				<stop  offset="1" style="stop-color:#333333;stop-opacity:0"/>
			</radialGradient>
			<rect x="444.19" y="1392.99" fill="url(#SVGID_22_)" width="18.86" height="2.439"/>
		</g>
		<g id="rect4859" filter="url(#filter5179)">
			
				<radialGradient id="SVGID_23_" cx="592.9335" cy="361.879" r="3.1213" gradientTransform="matrix(-5.8264 0 0 0.297 3964.427 1286.2117)" gradientUnits="userSpaceOnUse">
				<stop  offset="0" style="stop-color:#333333"/>
				<stop  offset="1" style="stop-color:#333333;stop-opacity:0"/>
			</radialGradient>
			<rect x="500.309" y="1392.479" fill="url(#SVGID_23_)" width="18.859" height="2.439"/>
		</g>
		<g id="rect4861" filter="url(#filter5183)">
			
				<radialGradient id="SVGID_24_" cx="602.5815" cy="412.3363" r="3.121" gradientTransform="matrix(-5.8263 0 0 0.297 3964.4514 1280.0945)" gradientUnits="userSpaceOnUse">
				<stop  offset="0" style="stop-color:#333333"/>
				<stop  offset="1" style="stop-color:#333333;stop-opacity:0"/>
			</radialGradient>
			<rect x="444.19" y="1401.35" fill="url(#SVGID_24_)" width="18.86" height="2.439"/>
		</g>
		<g id="rect4863" filter="url(#filter5187)">
			
				<radialGradient id="SVGID_25_" cx="592.9335" cy="409.2501" r="3.1213" gradientTransform="matrix(-5.8264 0 0 0.297 3964.427 1280.5023)" gradientUnits="userSpaceOnUse">
				<stop  offset="0" style="stop-color:#333333"/>
				<stop  offset="1" style="stop-color:#333333;stop-opacity:0"/>
			</radialGradient>
			<rect x="500.309" y="1400.841" fill="url(#SVGID_25_)" width="18.859" height="2.439"/>
		</g>
		<g id="rect4865" filter="url(#filter5191)">
			
				<radialGradient id="SVGID_26_" cx="602.5815" cy="412.3363" r="3.121" gradientTransform="matrix(-5.8263 0 0 0.297 3964.4514 1280.0945)" gradientUnits="userSpaceOnUse">
				<stop  offset="0" style="stop-color:#333333"/>
				<stop  offset="1" style="stop-color:#333333;stop-opacity:0"/>
			</radialGradient>
			<rect x="444.19" y="1401.35" fill="url(#SVGID_26_)" width="18.86" height="2.439"/>
		</g>
		<g id="rect4867" filter="url(#filter5195)">
			
				<radialGradient id="SVGID_27_" cx="592.9335" cy="409.2501" r="3.1213" gradientTransform="matrix(-5.8264 0 0 0.297 3964.427 1280.5023)" gradientUnits="userSpaceOnUse">
				<stop  offset="0" style="stop-color:#333333"/>
				<stop  offset="1" style="stop-color:#333333;stop-opacity:0"/>
			</radialGradient>
			<rect x="500.309" y="1400.841" fill="url(#SVGID_27_)" width="18.859" height="2.439"/>
		</g>
		<g id="rect4869" filter="url(#filter5199)">
			
				<radialGradient id="SVGID_28_" cx="602.5815" cy="412.3363" r="3.121" gradientTransform="matrix(-5.8263 0 0 0.297 3964.4514 1280.0945)" gradientUnits="userSpaceOnUse">
				<stop  offset="0" style="stop-color:#333333"/>
				<stop  offset="1" style="stop-color:#333333;stop-opacity:0"/>
			</radialGradient>
			<rect x="444.19" y="1401.35" fill="url(#SVGID_28_)" width="18.86" height="2.439"/>
		</g>
		<g id="rect4871" filter="url(#filter5203)">
			
				<radialGradient id="SVGID_29_" cx="592.9335" cy="409.2501" r="3.1213" gradientTransform="matrix(-5.8264 0 0 0.297 3964.427 1280.5023)" gradientUnits="userSpaceOnUse">
				<stop  offset="0" style="stop-color:#333333"/>
				<stop  offset="1" style="stop-color:#333333;stop-opacity:0"/>
			</radialGradient>
			<rect x="500.309" y="1400.841" fill="url(#SVGID_29_)" width="18.859" height="2.439"/>
		</g>
		<g id="rect4873" filter="url(#filter5207)">
			
				<radialGradient id="SVGID_30_" cx="602.5815" cy="412.3363" r="3.121" gradientTransform="matrix(-5.8263 0 0 0.297 3964.4514 1280.0945)" gradientUnits="userSpaceOnUse">
				<stop  offset="0" style="stop-color:#333333"/>
				<stop  offset="1" style="stop-color:#333333;stop-opacity:0"/>
			</radialGradient>
			<rect x="444.19" y="1401.35" fill="url(#SVGID_30_)" width="18.86" height="2.439"/>
		</g>
		<g id="rect4875" filter="url(#filter5211)">
			
				<radialGradient id="SVGID_31_" cx="592.9335" cy="409.2501" r="3.1213" gradientTransform="matrix(-5.8264 0 0 0.297 3964.427 1280.5023)" gradientUnits="userSpaceOnUse">
				<stop  offset="0" style="stop-color:#333333"/>
				<stop  offset="1" style="stop-color:#333333;stop-opacity:0"/>
			</radialGradient>
			<rect x="500.309" y="1400.841" fill="url(#SVGID_31_)" width="18.859" height="2.439"/>
		</g>
		<g id="rect4877" filter="url(#filter5215)">
			
				<radialGradient id="SVGID_32_" cx="602.5815" cy="412.3363" r="3.121" gradientTransform="matrix(-5.8263 0 0 0.297 3964.4514 1280.0945)" gradientUnits="userSpaceOnUse">
				<stop  offset="0" style="stop-color:#333333"/>
				<stop  offset="1" style="stop-color:#333333;stop-opacity:0"/>
			</radialGradient>
			<rect x="444.19" y="1401.35" fill="url(#SVGID_32_)" width="18.86" height="2.439"/>
		</g>
		<g id="rect4879" filter="url(#filter5219)">
			
				<radialGradient id="SVGID_33_" cx="592.9335" cy="409.2501" r="3.1213" gradientTransform="matrix(-5.8264 0 0 0.297 3964.427 1280.5023)" gradientUnits="userSpaceOnUse">
				<stop  offset="0" style="stop-color:#333333"/>
				<stop  offset="1" style="stop-color:#333333;stop-opacity:0"/>
			</radialGradient>
			<rect x="500.309" y="1400.841" fill="url(#SVGID_33_)" width="18.859" height="2.439"/>
		</g>
		<g id="rect4881" filter="url(#filter5223)">
			
				<radialGradient id="SVGID_34_" cx="602.5815" cy="412.3363" r="3.121" gradientTransform="matrix(-5.8263 0 0 0.297 3964.4514 1280.0945)" gradientUnits="userSpaceOnUse">
				<stop  offset="0" style="stop-color:#333333"/>
				<stop  offset="1" style="stop-color:#333333;stop-opacity:0"/>
			</radialGradient>
			<rect x="444.19" y="1401.35" fill="url(#SVGID_34_)" width="18.86" height="2.439"/>
		</g>
		<g id="rect4883" filter="url(#filter5227)">
			
				<radialGradient id="SVGID_35_" cx="592.9335" cy="409.2501" r="3.1213" gradientTransform="matrix(-5.8264 0 0 0.297 3964.427 1280.5023)" gradientUnits="userSpaceOnUse">
				<stop  offset="0" style="stop-color:#333333"/>
				<stop  offset="1" style="stop-color:#333333;stop-opacity:0"/>
			</radialGradient>
			<rect x="500.309" y="1400.841" fill="url(#SVGID_35_)" width="18.859" height="2.439"/>
		</g>
		<g id="rect4885" filter="url(#filter5231)">
			
				<radialGradient id="SVGID_36_" cx="602.5651" cy="436.0219" r="3.1213" fx="602.5651" fy="436.0193" gradientTransform="matrix(-5.8264 0 0 0.297 3964.427 1277.2399)" gradientUnits="userSpaceOnUse">
				<stop  offset="0" style="stop-color:#333333"/>
				<stop  offset="1" style="stop-color:#333333;stop-opacity:0"/>
			</radialGradient>
			<rect x="444.19" y="1405.53" fill="url(#SVGID_36_)" width="18.86" height="2.439"/>
		</g>
		<g id="rect4887" filter="url(#filter5235)">
			
				<radialGradient id="SVGID_37_" cx="592.9498" cy="432.9398" r="3.121" gradientTransform="matrix(-5.8263 0 0 0.297 3964.4514 1277.6456)" gradientUnits="userSpaceOnUse">
				<stop  offset="0" style="stop-color:#333333"/>
				<stop  offset="1" style="stop-color:#333333;stop-opacity:0"/>
			</radialGradient>
			<rect x="500.309" y="1405.02" fill="url(#SVGID_37_)" width="18.859" height="2.439"/>
		</g>
		<g id="rect4889" filter="url(#filter5239)">
			
				<radialGradient id="SVGID_38_" cx="602.5651" cy="484.0857" r="3.1213" gradientTransform="matrix(-5.8264 0 0 0.297 3964.427 1271.3257)" gradientUnits="userSpaceOnUse">
				<stop  offset="0" style="stop-color:#333333"/>
				<stop  offset="1" style="stop-color:#333333;stop-opacity:0"/>
			</radialGradient>
			<rect x="444.19" y="1413.891" fill="url(#SVGID_38_)" width="18.86" height="2.439"/>
		</g>
		<g id="rect4891" filter="url(#filter5243)">
			
				<radialGradient id="SVGID_39_" cx="592.9335" cy="480.9912" r="3.1213" gradientTransform="matrix(-5.8264 0 0 0.297 3964.427 1271.7335)" gradientUnits="userSpaceOnUse">
				<stop  offset="0" style="stop-color:#333333"/>
				<stop  offset="1" style="stop-color:#333333;stop-opacity:0"/>
			</radialGradient>
			<rect x="500.309" y="1413.381" fill="url(#SVGID_39_)" width="18.859" height="2.439"/>
		</g>
		<g id="rect4893" filter="url(#filter5247)">
			
				<radialGradient id="SVGID_40_" cx="602.5651" cy="531.4485" r="3.1213" gradientTransform="matrix(-5.8264 0 0 0.297 3964.427 1265.6165)" gradientUnits="userSpaceOnUse">
				<stop  offset="0" style="stop-color:#333333"/>
				<stop  offset="1" style="stop-color:#333333;stop-opacity:0"/>
			</radialGradient>
			<rect x="444.19" y="1422.25" fill="url(#SVGID_40_)" width="18.86" height="2.439"/>
		</g>
		<g id="rect4895" filter="url(#filter5251)">
			
				<radialGradient id="SVGID_41_" cx="592.9335" cy="528.3623" r="3.1213" gradientTransform="matrix(-5.8264 0 0 0.297 3964.427 1266.0242)" gradientUnits="userSpaceOnUse">
				<stop  offset="0" style="stop-color:#333333"/>
				<stop  offset="1" style="stop-color:#333333;stop-opacity:0"/>
			</radialGradient>
			<rect x="500.309" y="1421.742" fill="url(#SVGID_41_)" width="18.859" height="2.439"/>
		</g>
		<g id="rect4897" filter="url(#filter5255)">
			
				<radialGradient id="SVGID_42_" cx="592.0482" cy="578.6024" r="12.1705" gradientTransform="matrix(-5.8264 0 0 0.297 3964.427 1262.7617)" gradientUnits="userSpaceOnUse">
				<stop  offset="0" style="stop-color:#333333"/>
				<stop  offset="1" style="stop-color:#333333;stop-opacity:0"/>
			</radialGradient>
			<rect x="444.19" y="1426.431" fill="url(#SVGID_42_)" width="18.86" height="2.439"/>
		</g>
		<g id="rect4899" filter="url(#filter5259)">
			
				<radialGradient id="SVGID_43_" cx="592.0522" cy="577.4066" r="12.1655" gradientTransform="matrix(-5.8264 0 0 0.297 3964.427 1262.9646)" gradientUnits="userSpaceOnUse">
				<stop  offset="0" style="stop-color:#333333"/>
				<stop  offset="1" style="stop-color:#333333;stop-opacity:0"/>
			</radialGradient>
			<rect x="500.309" y="1425.923" fill="url(#SVGID_43_)" width="18.859" height="2.439"/>
		</g>
		<g id="rect4901" filter="url(#filter5263)">
			
				<radialGradient id="SVGID_44_" cx="592.0482" cy="578.6024" r="12.1705" gradientTransform="matrix(-5.8264 0 0 0.297 3964.427 1262.7617)" gradientUnits="userSpaceOnUse">
				<stop  offset="0" style="stop-color:#333333"/>
				<stop  offset="1" style="stop-color:#333333;stop-opacity:0"/>
			</radialGradient>
			<rect x="444.19" y="1426.431" fill="url(#SVGID_44_)" width="18.86" height="2.439"/>
		</g>
		<g id="rect4903" filter="url(#filter5267)">
			
				<radialGradient id="SVGID_45_" cx="592.0522" cy="577.4066" r="12.1655" gradientTransform="matrix(-5.8264 0 0 0.297 3964.427 1262.9646)" gradientUnits="userSpaceOnUse">
				<stop  offset="0" style="stop-color:#333333"/>
				<stop  offset="1" style="stop-color:#333333;stop-opacity:0"/>
			</radialGradient>
			<rect x="500.309" y="1425.923" fill="url(#SVGID_45_)" width="18.859" height="2.439"/>
		</g>
		<g id="rect4905" filter="url(#filter5271)">
			
				<radialGradient id="SVGID_46_" cx="849.2981" cy="562.6938" r="18.561" gradientTransform="matrix(-3.8198 0 0 0.7093 3759.2185 1035.4268)" gradientUnits="userSpaceOnUse">
				<stop  offset="0" style="stop-color:#333333"/>
				<stop  offset="1" style="stop-color:#333333;stop-opacity:0"/>
			</radialGradient>
			<path fill="url(#SVGID_46_)" d="M463.497,1440.284h44.125c5.943,0,10.761,4.818,10.761,10.763v23.675
				c0,5.943-4.818,10.763-10.761,10.763h-44.125c-5.943,0-10.761-4.82-10.761-10.763v-23.675
				C452.736,1445.102,457.554,1440.284,463.497,1440.284z"/>
		</g>
		
			<radialGradient id="path4789_1_" cx="-17.7511" cy="520.3209" r="48.2673" gradientTransform="matrix(-0.335 0.0785 0.3197 1.3645 144.3634 744.2975)" gradientUnits="userSpaceOnUse">
			<stop  offset="0" style="stop-color:#000000"/>
			<stop  offset="1" style="stop-color:#000000;stop-opacity:0"/>
		</radialGradient>
		<path id="path4789" fill="url(#path4789_1_)" stroke="#000000" d="M282.747,1319.752l67.862,7.83v52.201l15.661,15.661
			l-23.491,28.712l2.611,44.371l-33.931,15.661l-20.882,39.153l-28.711-5.222v2.611l33.931,5.219c0,0,0,80.914-10.44,75.694
			c-10.437-5.228-86.131-28.729-86.131-28.729"/>
		
			<radialGradient id="path4787_1_" cx="-198.3253" cy="400.5592" r="48.2665" gradientTransform="matrix(1.1425 -3.2727 -1.3231 -0.4619 1007.937 1111.4988)" gradientUnits="userSpaceOnUse">
			<stop  offset="0" style="stop-color:#333333"/>
			<stop  offset="1" style="stop-color:#333333;stop-opacity:0"/>
		</radialGradient>
		<path id="path4787" fill="url(#path4787_1_)" stroke="#000000" d="M282.747,1319.752l67.862,7.83v52.201l15.661,15.661
			l-23.491,28.712l2.611,44.371l-33.931,15.661l-20.882,39.153l-28.711-5.222v2.611l33.931,5.219c0,0,0,80.914-10.44,75.694
			c-10.437-5.228-86.131-28.729-86.131-28.729"/>
		<path id="path4771" stroke="#000000" stroke-width="1.0252" d="M195.54,1580.744l-16.462-88.729v-73.071l13.718-18.273
			l-19.205-52.194l101.51-46.985l49.385,151.374L195.54,1580.738V1580.744z"/>
		<path id="path4767" fill="none" stroke="#000000" stroke-width="19.4" stroke-linecap="round" d="M548.974,1392.842l33.94-109.635
			"/>
		
			<rect id="rect4765" x="446.754" y="1361.088" fill="#888888" stroke="#3C3C3C" stroke-width="2.3119" stroke-linecap="round" stroke-linejoin="round" width="60.886" height="118.309"/>
		<g id="g4348" transform="translate(4.4781 -277.64)">
			<path id="path4344" fill="none" stroke="#000000" d="M-43.936,1858.925l-108.411,29.051"/>
			<path id="path4332" fill="none" stroke="#000000" d="M104.411,1735.476l-79.362,79.362"/>
			<path id="path4322" fill="none" stroke="#000000" d="M10.078,1806.992l29.048-108.411"/>
			<path id="path4318" fill="none" stroke="#000000" d="M-6.796,1807.693l-29.05-108.413"/>
			<path id="path4244" fill="none" stroke="#000000" d="M-89.276,1964.889l56.117-97.197"/>
			<path id="path4258" fill="none" stroke="#000000" d="M-46.891,1823.604l-97.197-56.115"/>
			<path id="path4248" fill="none" stroke="#000000" d="M-91.549,1713.969l56.116,97.197"/>
			<path id="path4336" fill="none" stroke="#000000" d="M142.489,1799.998l-108.412,29.051"/>
			<path id="path4340" fill="none" stroke="#000000" d="M143.165,1875.012l-108.412-29.049"/>
			<path id="path4326" fill="none" stroke="#000000" d="M26.894,1861.023l79.362,79.362"/>
			<path id="path4320" fill="none" stroke="#000000" d="M41.655,1978.353l-29.048-108.411"/>
			<path id="path4324" fill="none" stroke="#000000" d="M-33.339,1979.052l29.049-108.411"/>
			<g id="g4178" transform="translate(-610.52 107.32)">
				<path id="path4180" fill="#AAAAAA" d="M650.376,1733.868c0,30.993-25.708,56.117-57.423,56.117s-57.423-25.124-57.423-56.117
					c0-30.993,25.708-56.117,57.423-56.117S650.376,1702.875,650.376,1733.868z"/>
				<path id="path4182" fill="#CCCCCF" d="M639.891,1733.86c0,25.329-21.011,45.865-46.93,45.865
					c-25.92,0-46.932-20.536-46.932-45.865c0-25.331,21.011-45.865,46.932-45.865
					C618.879,1687.995,639.891,1708.529,639.891,1733.86z"/>
				<path id="path4184" d="M595.563,1697.311c0,1.672-1.356,3.029-3.028,3.029c-1.672,0-3.029-1.357-3.029-3.029
					c0-1.672,1.357-3.027,3.029-3.027C594.207,1694.284,595.563,1695.639,595.563,1697.311z"/>
				<path id="path4186" d="M595.563,1770.751c0,1.672-1.356,3.029-3.028,3.029c-1.672,0-3.029-1.357-3.029-3.029
					c0-1.672,1.357-3.027,3.029-3.027C594.207,1767.724,595.563,1769.079,595.563,1770.751z"/>
				<path id="path4188" d="M595.563,1697.311c0,1.672-1.356,3.029-3.028,3.029c-1.672,0-3.029-1.357-3.029-3.029
					c0-1.672,1.357-3.027,3.029-3.027C594.207,1694.284,595.563,1695.639,595.563,1697.311z"/>
				<path id="path4190" d="M595.563,1770.751c0,1.672-1.356,3.029-3.028,3.029c-1.672,0-3.029-1.357-3.029-3.029
					c0-1.672,1.357-3.027,3.029-3.027C594.207,1767.724,595.563,1769.079,595.563,1770.751z"/>
				<path id="path4192" d="M613.517,1703.756c-0.836,1.449-2.689,1.945-4.136,1.109c-1.449-0.836-1.945-2.689-1.109-4.138
					s2.689-1.945,4.136-1.109C613.858,1700.455,614.354,1702.307,613.517,1703.756z"/>
				<path id="path4194" d="M576.797,1767.351c-0.836,1.449-2.689,1.945-4.136,1.109c-1.449-0.836-1.945-2.689-1.109-4.138
					c0.836-1.447,2.689-1.943,4.136-1.107C577.138,1764.052,577.634,1765.903,576.797,1767.351z"/>
				<path id="path4196" d="M613.517,1703.756c-0.836,1.449-2.689,1.945-4.136,1.109c-1.449-0.836-1.945-2.689-1.109-4.138
					s2.689-1.945,4.136-1.109C613.858,1700.455,614.354,1702.307,613.517,1703.756z"/>
				<path id="path4198" d="M576.797,1767.351c-0.836,1.449-2.689,1.945-4.136,1.109c-1.449-0.836-1.945-2.689-1.109-4.138
					c0.836-1.447,2.689-1.943,4.136-1.107C577.138,1764.052,577.634,1765.903,576.797,1767.351z"/>
				<path id="path4200" d="M625.839,1718.296c-1.448,0.836-3.3,0.34-4.136-1.109c-0.836-1.449-0.34-3.299,1.109-4.135
					c1.448-0.836,3.3-0.34,4.136,1.109C627.783,1715.607,627.287,1717.46,625.839,1718.296z"/>
				<path id="path4202" d="M562.243,1755.017c-1.448,0.836-3.3,0.34-4.136-1.109s-0.34-3.301,1.109-4.137
					c1.448-0.836,3.3-0.34,4.136,1.109C564.188,1752.328,563.692,1754.181,562.243,1755.017z"/>
				<path id="path4204" d="M625.839,1718.296c-1.448,0.836-3.3,0.34-4.136-1.109c-0.836-1.449-0.34-3.299,1.109-4.135
					c1.448-0.836,3.3-0.34,4.136,1.109C627.783,1715.607,627.287,1717.46,625.839,1718.296z"/>
				<path id="path4206" d="M562.243,1755.017c-1.448,0.836-3.3,0.34-4.136-1.109s-0.34-3.301,1.109-4.137
					c1.448-0.836,3.3-0.34,4.136,1.109C564.188,1752.328,563.692,1754.181,562.243,1755.017z"/>
				<path id="path4208" d="M629.166,1737.01c-1.672,0-3.028-1.357-3.028-3.029c0-1.672,1.356-3.027,3.028-3.027
					c1.672,0,3.028,1.355,3.028,3.027C632.193,1735.653,630.838,1737.01,629.166,1737.01z"/>
				<path id="path4210" d="M555.814,1737.01c-1.673,0-3.029-1.357-3.029-3.029c0-1.672,1.356-3.027,3.029-3.027
					c1.672,0,3.028,1.355,3.028,3.027C558.842,1735.653,557.486,1737.01,555.814,1737.01z"/>
				<path id="path4212" d="M629.166,1737.01c-1.672,0-3.028-1.357-3.028-3.029c0-1.672,1.356-3.027,3.028-3.027
					c1.672,0,3.028,1.355,3.028,3.027C632.193,1735.653,630.838,1737.01,629.166,1737.01z"/>
				<path id="path4214" d="M555.814,1737.01c-1.673,0-3.029-1.357-3.029-3.029c0-1.672,1.356-3.027,3.029-3.027
					c1.672,0,3.028,1.355,3.028,3.027C558.842,1735.653,557.486,1737.01,555.814,1737.01z"/>
				<path id="path4216" d="M622.809,1754.998c-1.448-0.836-1.944-2.687-1.108-4.135c0.836-1.449,2.688-1.945,4.136-1.109
					c1.448,0.836,1.945,2.689,1.108,4.137C626.109,1755.339,624.258,1755.834,622.809,1754.998z"/>
				<path id="path4218" d="M559.214,1718.28c-1.449-0.836-1.945-2.689-1.109-4.138c0.836-1.447,2.689-1.945,4.136-1.109
					c1.449,0.836,1.945,2.689,1.109,4.138C562.514,1718.62,560.662,1719.116,559.214,1718.28z"/>
				<path id="path4220" d="M622.809,1754.998c-1.448-0.836-1.944-2.687-1.108-4.135c0.836-1.449,2.688-1.945,4.136-1.109
					c1.448,0.836,1.945,2.689,1.108,4.137C626.109,1755.339,624.258,1755.834,622.809,1754.998z"/>
				<path id="path4222" d="M559.214,1718.28c-1.449-0.836-1.945-2.689-1.109-4.138c0.836-1.447,2.689-1.945,4.136-1.109
					c1.449,0.836,1.945,2.689,1.109,4.138C562.514,1718.62,560.662,1719.116,559.214,1718.28z"/>
				<path id="path4224" d="M608.269,1767.339c-0.836-1.449-0.34-3.301,1.109-4.137c1.448-0.836,3.299-0.34,4.136,1.109
					c0.836,1.449,0.339,3.299-1.109,4.135C610.957,1769.282,609.105,1768.786,608.269,1767.339z"/>
				<path id="path4226" d="M571.549,1703.691c-0.836-1.449-0.34-3.301,1.109-4.137c1.448-0.836,3.3-0.34,4.136,1.109
					c0.836,1.449,0.339,3.301-1.109,4.137C574.237,1705.635,572.385,1705.14,571.549,1703.691z"/>
				<path id="path4228" d="M608.269,1767.339c-0.836-1.449-0.34-3.301,1.109-4.137c1.448-0.836,3.299-0.34,4.136,1.109
					c0.836,1.449,0.339,3.299-1.109,4.135C610.957,1769.282,609.105,1768.786,608.269,1767.339z"/>
				<path id="path4230" d="M571.549,1703.691c-0.836-1.449-0.34-3.301,1.109-4.137c1.448-0.836,3.3-0.34,4.136,1.109
					c0.836,1.449,0.339,3.301-1.109,4.137C574.237,1705.635,572.385,1705.14,571.549,1703.691z"/>
				
					<linearGradient id="path4232_1_" gradientUnits="userSpaceOnUse" x1="1632.7992" y1="553.7532" x2="1641.8291" y2="499.0131" gradientTransform="matrix(0.2289 0 0 -0.2386 214.9346 1838.5637)">
					<stop  offset="0" style="stop-color:#FDCA01"/>
					<stop  offset="1" style="stop-color:#816647"/>
				</linearGradient>
				<path id="path4232" fill="url(#path4232_1_)" d="M610.166,1733.858c0,9.285-7.703,16.814-17.205,16.814
					c-9.502,0-17.206-7.529-17.206-16.814c0-9.287,7.703-16.814,17.206-16.814C602.463,1717.044,610.166,1724.571,610.166,1733.858z
					"/>
			</g>
			<path id="path4240" fill="none" stroke="#000000" d="M-16.676,1983.773v-112.235"/>
			<path id="path4242" fill="none" stroke="#000000" d="M-2.792,1809.966l56.116-97.197"/>
			<path id="path4246" fill="none" stroke="#000000" d="M-0.537,1866.444l56.117,97.199"/>
			<path id="path4250" fill="none" stroke="#000000" d="M-45.58,1856.302l-97.197,56.117"/>
			<path id="path4252" fill="none" stroke="#000000" d="M106.821,1765.201l-97.198,56.117"/>
			<path id="path4254" fill="none" stroke="#000000" d="M-50.597,1840.215h-112.236"/>
			<path id="path4256" fill="none" stroke="#000000" d="M126.882,1837.594l-112.236-0.002"/>
			<path id="path4260" fill="none" stroke="#000000" d="M108.127,1910.159l-97.198-56.117"/>
			<path id="path4328" fill="none" stroke="#000000" d="M-113.511,1729.531l79.362,79.362"/>
			<path id="path4338" fill="none" stroke="#000000" d="M-44.618,1823.78l-108.412-29.051"/>
			<path id="path4236" fill="none" stroke="#000000" d="M-16.676,1798.424v-112.235"/>
			<path id="path4330" fill="none" stroke="#000000" d="M-37.519,1875.887l-79.362,79.362"/>
		</g>
		<g id="g3898">
			<path id="path2872" d="M-6.966,1364.113c-106.673,0-193.165,87.672-193.165,195.788c0,108.114,86.49,195.735,193.165,195.735
				c106.677,0,193.112-87.672,193.112-195.804c0-108.116-86.434-195.771-193.112-195.771V1364.113z M-9.589,1419.193
				c78.088,0,141.415,64.185,141.415,143.328c0,79.143-63.328,143.275-141.415,143.275s-141.416-64.132-141.416-143.275
				C-151.004,1483.378-87.677,1419.193-9.589,1419.193z"/>
			
				<path id="path3894" fill-opacity="0" stroke="#140E0E" stroke-width="3.8" stroke-linecap="round" stroke-linejoin="round" stroke-dasharray="3.8,3.8" d="
				M186.851,1555.949c0,106.323-86.776,192.517-193.819,192.517s-193.819-86.191-193.819-192.517
				c0-106.323,86.776-192.518,193.819-192.518S186.851,1449.623,186.851,1555.949z"/>
		</g>
		<g id="g3027" transform="translate(-610.52 -168.68)">
			<path id="path2911" fill="#AAAAAA" d="M647.024,1735.095c0,30.993-25.708,56.117-57.423,56.117s-57.423-25.124-57.423-56.117
				s25.708-56.117,57.423-56.117S647.024,1704.102,647.024,1735.095z"/>
			<path id="path2913" fill="#CCCCCF" d="M636.538,1735.087c0,25.331-21.011,45.865-46.93,45.865
				c-25.92,0-46.932-20.534-46.932-45.865c0-25.329,21.011-45.863,46.932-45.863
				C615.527,1689.224,636.538,1709.758,636.538,1735.087z"/>
			<path id="path2921" d="M592.21,1698.54c0,1.672-1.356,3.027-3.028,3.027s-3.029-1.354-3.029-3.027
				c0-1.672,1.357-3.029,3.029-3.029S592.21,1696.868,592.21,1698.54z"/>
			<path id="path2923" d="M592.21,1771.98c0,1.672-1.356,3.027-3.028,3.027s-3.029-1.354-3.029-3.027
				c0-1.672,1.357-3.029,3.029-3.029S592.21,1770.308,592.21,1771.98z"/>
			<path id="path2925" d="M592.21,1698.54c0,1.672-1.356,3.027-3.028,3.027s-3.029-1.354-3.029-3.027
				c0-1.672,1.357-3.029,3.029-3.029S592.21,1696.868,592.21,1698.54z"/>
			<path id="path2927" d="M592.21,1771.98c0,1.672-1.356,3.027-3.028,3.027s-3.029-1.354-3.029-3.027
				c0-1.672,1.357-3.029,3.029-3.029S592.21,1770.308,592.21,1771.98z"/>
			<path id="path2945" d="M610.165,1704.983c-0.836,1.449-2.689,1.945-4.136,1.109c-1.449-0.836-1.945-2.689-1.109-4.135
				c0.836-1.449,2.689-1.945,4.136-1.109C610.505,1701.684,611.001,1703.536,610.165,1704.983z"/>
			<path id="path2947" d="M573.445,1768.58c-0.836,1.447-2.689,1.943-4.136,1.107c-1.449-0.836-1.945-2.687-1.109-4.135
				c0.836-1.449,2.689-1.945,4.136-1.109C573.785,1765.279,574.281,1767.131,573.445,1768.58z"/>
			<path id="path2949" d="M610.165,1704.983c-0.836,1.449-2.689,1.945-4.136,1.109c-1.449-0.836-1.945-2.689-1.109-4.135
				c0.836-1.449,2.689-1.945,4.136-1.109C610.505,1701.684,611.001,1703.536,610.165,1704.983z"/>
			<path id="path2951" d="M573.445,1768.58c-0.836,1.447-2.689,1.943-4.136,1.107c-1.449-0.836-1.945-2.687-1.109-4.135
				c0.836-1.449,2.689-1.945,4.136-1.109C573.785,1765.279,574.281,1767.131,573.445,1768.58z"/>
			<path id="path2985" d="M622.487,1719.525c-1.448,0.836-3.3,0.338-4.136-1.109c-0.836-1.449-0.34-3.301,1.109-4.137
				c1.448-0.836,3.3-0.34,4.136,1.109C624.431,1716.836,623.935,1718.689,622.487,1719.525z"/>
			<path id="path2987" d="M558.891,1756.244c-1.448,0.836-3.3,0.34-4.136-1.109s-0.34-3.299,1.109-4.135
				c1.448-0.836,3.3-0.34,4.136,1.109C560.836,1753.555,560.34,1755.407,558.891,1756.244z"/>
			<path id="path2989" d="M622.487,1719.525c-1.448,0.836-3.3,0.338-4.136-1.109c-0.836-1.449-0.34-3.301,1.109-4.137
				c1.448-0.836,3.3-0.34,4.136,1.109C624.431,1716.836,623.935,1718.689,622.487,1719.525z"/>
			<path id="path2991" d="M558.891,1756.244c-1.448,0.836-3.3,0.34-4.136-1.109s-0.34-3.299,1.109-4.135
				c1.448-0.836,3.3-0.34,4.136,1.109C560.836,1753.555,560.34,1755.407,558.891,1756.244z"/>
			<path id="path2993" d="M625.813,1738.237c-1.672,0-3.028-1.354-3.028-3.027c0-1.674,1.356-3.029,3.028-3.029
				c1.672,0,3.028,1.355,3.028,3.029C628.841,1736.882,627.486,1738.237,625.813,1738.237z"/>
			<path id="path2995" d="M552.462,1738.237c-1.673,0-3.029-1.354-3.029-3.027c0-1.674,1.356-3.029,3.029-3.029
				c1.672,0,3.028,1.355,3.028,3.029C555.49,1736.882,554.134,1738.237,552.462,1738.237z"/>
			<path id="path2997" d="M625.813,1738.237c-1.672,0-3.028-1.354-3.028-3.027c0-1.674,1.356-3.029,3.028-3.029
				c1.672,0,3.028,1.355,3.028,3.029C628.841,1736.882,627.486,1738.237,625.813,1738.237z"/>
			<path id="path2999" d="M552.462,1738.237c-1.673,0-3.029-1.354-3.029-3.027c0-1.674,1.356-3.029,3.029-3.029
				c1.672,0,3.028,1.355,3.028,3.029C555.49,1736.882,554.134,1738.237,552.462,1738.237z"/>
			<path id="path3001" d="M619.457,1756.227c-1.448-0.836-1.944-2.689-1.108-4.137c0.836-1.449,2.688-1.945,4.136-1.109
				c1.448,0.836,1.945,2.689,1.108,4.137C622.757,1756.567,620.906,1757.063,619.457,1756.227z"/>
			<path id="path3003" d="M555.861,1719.506c-1.449-0.836-1.945-2.687-1.109-4.135c0.836-1.449,2.689-1.945,4.136-1.109
				c1.449,0.836,1.945,2.689,1.109,4.135C559.162,1719.846,557.31,1720.342,555.861,1719.506z"/>
			<path id="path3005" d="M619.457,1756.227c-1.448-0.836-1.944-2.689-1.108-4.137c0.836-1.449,2.688-1.945,4.136-1.109
				c1.448,0.836,1.945,2.689,1.108,4.137C622.757,1756.567,620.906,1757.063,619.457,1756.227z"/>
			<path id="path3007" d="M555.861,1719.506c-1.449-0.836-1.945-2.687-1.109-4.135c0.836-1.449,2.689-1.945,4.136-1.109
				c1.449,0.836,1.945,2.689,1.109,4.135C559.162,1719.846,557.31,1720.342,555.861,1719.506z"/>
			<path id="path3009" d="M604.917,1768.566c-0.836-1.449-0.34-3.301,1.109-4.137c1.448-0.836,3.299-0.34,4.136,1.109
				c0.836,1.449,0.339,3.301-1.109,4.137C607.605,1770.511,605.753,1770.015,604.917,1768.566z"/>
			<path id="path3011" d="M568.197,1704.917c-0.836-1.449-0.34-3.299,1.109-4.135c1.448-0.836,3.3-0.34,4.136,1.107
				c0.836,1.449,0.339,3.301-1.109,4.137C570.885,1706.862,569.033,1706.366,568.197,1704.917z"/>
			<path id="path3013" d="M604.917,1768.566c-0.836-1.449-0.34-3.301,1.109-4.137c1.448-0.836,3.299-0.34,4.136,1.109
				c0.836,1.449,0.339,3.301-1.109,4.137C607.605,1770.511,605.753,1770.015,604.917,1768.566z"/>
			<path id="path3015" d="M568.197,1704.917c-0.836-1.449-0.34-3.299,1.109-4.135c1.448-0.836,3.3-0.34,4.136,1.107
				c0.836,1.449,0.339,3.301-1.109,4.137C570.885,1706.862,569.033,1706.366,568.197,1704.917z"/>
			
				<linearGradient id="path3017_1_" gradientUnits="userSpaceOnUse" x1="1637.2753" y1="552.1294" x2="1646.306" y2="497.3842" gradientTransform="matrix(0.2289 0 0 -0.2386 210.5576 1839.4011)">
				<stop  offset="0" style="stop-color:#FDCA01"/>
				<stop  offset="1" style="stop-color:#816647"/>
			</linearGradient>
			<path id="path3017" fill="url(#path3017_1_)" d="M606.814,1735.085c0,9.287-7.703,16.814-17.205,16.814
				c-9.502,0-17.206-7.527-17.206-16.814c0-9.285,7.703-16.814,17.206-16.814C599.11,1718.271,606.814,1725.8,606.814,1735.085z"/>
		</g>
		<path id="path2901" fill="#EEEEEE" stroke="#A09292" stroke-width="0.6" d="M669.05,1244.056
			c26.374-33.99,4.312-102.817-14.001-108.702C621.853,1168.957,626.056,1203.527,669.05,1244.056z"/>
		<path id="path2899" fill="#EEEEEE" stroke="#000000" d="M666.427,1246.661c0,0-28.938,15.31-26.417,6.59
			c1.293-4.478-54.677-57.108-14.763-124.045l25.468,5.221C623.251,1176.011,645.631,1211.972,666.427,1246.661L666.427,1246.661z"
			/>
		<path id="path2897" fill="#003366" stroke="#000000" d="M635.11,1246.661c-11.16-37.171-35.729-69.875-7.83-120.066l-13.05-10.44
			l-70.475,28.711l73.083,127.896L635.11,1246.661L635.11,1246.661z"/>
		<path id="path2893" fill="#CCCCCF" stroke="#000000" d="M688.581,1400.658l-1.266-7.83l-65.253-133.116l-23.491,13.051
			L688.581,1400.658L688.581,1400.658z"/>
		
			<radialGradient id="path2858_1_" cx="-799.0114" cy="327.2419" r="99.0188" gradientTransform="matrix(0.6815 -0.6532 -0.2951 -0.3078 422.0073 1051.2715)" gradientUnits="userSpaceOnUse">
			<stop  offset="0" style="stop-color:#CCCCCF"/>
			<stop  offset="1" style="stop-color:#EEEEEE"/>
		</radialGradient>
		<path id="path2858" fill="url(#path2858_1_)" stroke="#BAB6B6" d="M-205.341,1481.581l-44.372,5.221
			c119.567-267.672,257.809-156.427,344.539-130.514c-125.164-28.764-225.986-13.097-300.161,125.285L-205.341,1481.581z"/>
		<path id="path2866" fill="#EEEEEE" stroke="#000000" stroke-width="0.4246" d="M-224.575,1334.458
			c-12.866,22.47-10.962,35.389-12.646,46.677c0,0,31.66,7.779,48.475,0.608c4.546-1.94,6.798-9.205,8.497-12.932
			C-171.474,1349.557-224.575,1334.457-224.575,1334.458L-224.575,1334.458z"/>
		
			<radialGradient id="path2868_1_" cx="-749.2273" cy="611.3435" r="8.6718" gradientTransform="matrix(-0.1756 2.6298 1.479 0.0988 -1273.0377 3245.3423)" gradientUnits="userSpaceOnUse">
			<stop  offset="0" style="stop-color:#D40000"/>
			<stop  offset="1" style="stop-color:#FB8B00"/>
		</radialGradient>
		<path id="path2868" fill="url(#path2868_1_)" stroke="#6E0F0F" d="M-234.053,1382.402c0,0-17.459-4.103-20.228-14.355
			c-3.249-12.026,9.787-37.846,9.787-37.846l18.271,2.61l-7.83,49.594V1382.402z"/>
		
			<radialGradient id="path2864_1_" cx="-722.1113" cy="558.4639" r="17.6658" gradientTransform="matrix(-0.9388 2.0302 1.0439 0.4828 -1479.405 2587.9778)" gradientUnits="userSpaceOnUse">
			<stop  offset="0" style="stop-color:#000000"/>
			<stop  offset="1" style="stop-color:#333333"/>
		</radialGradient>
		<path id="path2864" fill="url(#path2864_1_)" stroke="#000000" d="M-236.658,1382.402l-15.661,80.914l18.27,2.611l41.761-78.303
			l-44.372-5.221L-236.658,1382.402z"/>
		<path id="path2862" fill="#0169C9" stroke="#263E66" stroke-width="1.2" d="M282.747,1277.996
			c-9.127,8.784-2.088,38.421,10.44,36.542c72.101-10.819,222.243-4.446,229.692-7.83c18.618-8.464,61.765-84.61,10.441-101.795
			c-82.096-27.488-178.337,3.562-250.571,73.083H282.747z"/>
		<path id="path2860" stroke="#000000" d="M-124.434,1233.617l7.83,88.744c79.826-23.224,132.898,27.113,219.9,50.897
			l148.124-45.675c0,0,49.147-43.746,36.541-65.253c-1.759-3.003-7.046-0.771-10.44,0c-59.42,13.49-108.554,28.707-161.826,18.27
			c-21.395-4.192-36.672-24.632-57.424-31.322c-6.676-2.152-13.903-1.894-20.881-2.61c-53.833-5.533-161.826-13.051-161.826-13.051
			H-124.434z"/>
		<path id="path2870" fill="none" stroke="#000000" stroke-width="6.5" d="M-121.83,1306.707
			c-17.799-26.996-55.175-149.51-18.27-104.404l23.49,28.711l-5.22,75.694V1306.707z"/>
		
			<linearGradient id="rect2883_1_" gradientUnits="userSpaceOnUse" x1="-476.2267" y1="257.1864" x2="-476.2267" y2="238.5264" gradientTransform="matrix(0.8948 0 0 -0.6347 437.0701 1745.2371)">
			<stop  offset="0" style="stop-color:#AAAAAA"/>
			<stop  offset="1" style="stop-color:#EEEEEE"/>
		</linearGradient>
		<path id="rect2883" fill="url(#rect2883_1_)" stroke="#878484" stroke-width="0.0904" stroke-linejoin="round" d="
			M-75.807,1586.06c-12.429,0-23.343,3.603-29.806,9.115c-1.133-0.744-2.396-1.166-3.755-1.166h-61.315
			c-4.635,0-8.391,4.834-8.391,10.863c0,6.027,3.755,10.904,8.391,10.904h61.315c0.308,0,0.638-0.043,0.939-0.084
			c5.721,7.101,18.141,11.986,32.622,11.986h263.912c19.941,0,10.802-5.299,10.802-16.833c0-11.535,9.139-24.786-10.802-24.786
			H-75.807L-75.807,1586.06z"/>
		<path id="path2895" fill="#0169C9" stroke="#000000" d="M551.581,1173.588c32.381,58.364,88.978,160.147,54.812,99.185
			l15.661-15.662l-49.593-88.743l-20.882,5.22L551.581,1173.588z"/>
		<path id="path2903" stroke="#000000" d="M319.287,1168.361c2.611,10.44,10.441,23.49,10.441,23.49s75.694-18.27,73.083-28.711
			c-2.611-10.44-2.611-15.661-2.611-15.661l-80.913,20.881L319.287,1168.361z"/>
		<path id="path2905" stroke="#000000" d="M400.207,1134.438l18.269,41.761c0,0,36.543-2.61,26.102-13.051
			c-10.441-10.44-5.219-41.761-5.219-41.761l-39.154,13.051H400.207z"/>
		<path id="path2907" stroke="#000000" d="M444.568,1116.165l18.271,41.761c0,0,36.541-2.61,26.1-13.051
			c-10.439-10.44-5.219-41.761-5.219-41.761L444.568,1116.165L444.568,1116.165z"/>
		<path id="path2909" fill="#18202F" stroke="#000000" stroke-width="1.04" d="M509.212,1198.558l41.752-23.086l52.64,92.283
			l-68.848,30.453C563.934,1250.114,574.203,1204.005,509.212,1198.558L509.212,1198.558z"/>
		
			<linearGradient id="path3854_1_" gradientUnits="userSpaceOnUse" x1="-754.1989" y1="-264.8506" x2="-712.9896" y2="-262.3506" gradientTransform="matrix(0.2892 0.0961 0.0934 -0.4321 271.4644 1355.3567)">
			<stop  offset="0" style="stop-color:#CCCCCF"/>
			<stop  offset="1" style="stop-color:#888888"/>
		</linearGradient>
		<path id="path3854" fill="url(#path3854_1_)" stroke="#000000" stroke-width="0.4392" d="M-5.077,1423.634l14.651-51.245
			l12.888-10.224l23.229,4.815l10.019,12.031c0,0-5.096,50.529-8.719,49.326c-3.623-1.205-53.267-3.648-52.069-4.701
			L-5.077,1423.634z"/>
		<path id="path3866" fill="none" stroke="#615454" stroke-width="1.7866" stroke-linecap="round" d="M-8.627,1426.083
			c5.267-0.332,57.061,3.189,57.061,3.189l-55.226,6.572l50.269,2.728l-55.226,6.57l50.442,2.051l-53.194,8.777l49.763,1.316
			l-52.688,10.185l48.915,1.258l-51.495,8.892l48.914,1.258"/>
		<path id="path3868" fill="none" stroke="#9B9797" stroke-width="1.7866" stroke-linecap="round" d="M-15.377,1446.26
			c5.268-0.33,57.061,3.189,57.061,3.189l-55.225,6.574l50.268,2.726l-55.225,6.574l50.441,2.049l-53.193,8.775l49.763,1.316
			l-52.688,10.187l48.915,1.258l-51.496,8.89l48.915,1.26"/>
		<path id="path3874" fill="#666666" stroke="#000000" d="M-14.799,1497.25l-16.497,52.986c0,0,10.157-5.219,15.661-5.219
			c5.502,0,15.661,5.219,15.661,5.219l13.887-50.377l-28.712-2.609H-14.799z"/>
		<path id="path3876" fill="#CCCCCF" stroke="#000000" d="M194.002,1366.736l18.271,80.914l73.083-10.441l-18.271-86.132
			l-73.083,15.661V1366.736z"/>
		<path id="path3878" fill="none" stroke="#686464" stroke-width="10.2" d="M486.34,1123.999l54.814,18.271l67.862-28.711
			c0,0-22.106-28.364-15.661-41.761c18.249-37.934,10.439-31.322,10.439-31.322"/>
		<path id="path3882" fill="none" stroke="#C1BBBB" stroke-width="3.5" d="M486.34,1123.999l54.814,18.271l67.862-28.711
			c0,0-22.106-28.364-15.661-41.761c18.249-37.934,10.439-31.322,10.439-31.322"/>
		<path id="path3888" fill="none" stroke="#463C3C" stroke-width="16.121" d="M694.666,1400.867l-81.711-134.605"/>
		<path id="path3890" fill="none" stroke="#DDDDDD" stroke-width="11.861" d="M695.715,1396.916l-77.094-132.367"/>
		<path id="path4618" fill="#333333" stroke="#686464" stroke-width="1.0858" d="M338.875,1350.194h10.903l-4.361-21.176
			l23.989,1.841v15.652l7.632-0.921l1.09,3.684l42.525-0.921l1.09,23.018l-25.079,1.841l-3.271-4.604l-7.632,1.841v4.604h-8.724
			l1.09,4.604h-2.18l-2.18,14.732l-3.271,0.92l-2.181-4.604l-9.813,1.841l-7.633-7.365l-2.18-10.129l1.09-8.286h-11.993l1.09-16.574
			H338.875z"/>
		<path id="path4620" fill="#AAAAAA" stroke="#000000" d="M427.362,1331.711v-23.993c0,0,17.712-4.772,26.761-4.615
			c7.539,0.131,22.147,4.615,22.147,4.615s4.615,22.147,0.924,23.07C473.502,1331.711,427.362,1332.635,427.362,1331.711
			L427.362,1331.711z"/>
		<path id="path4622" fill="#AAAAAA" stroke="#000000" d="M499.333,1328.949v-23.994c0,0,17.712-4.771,26.762-4.614
			c7.541,0.131,22.149,4.614,22.149,4.614s4.613,22.148,0.922,23.071C545.474,1328.949,499.333,1329.871,499.333,1328.949
			L499.333,1328.949z"/>
		<rect id="rect4624" x="426.436" y="1332.639" fill="#888888" width="50.752" height="9.228"/>
		<rect id="rect4626" x="498.407" y="1331.711" fill="#888888" width="50.754" height="9.229"/>
		<rect id="rect4628" x="426.436" y="1342.71" fill="#888888" width="50.371" height="5.034"/>
		<rect id="rect4630" x="497.863" y="1342.204" fill="#888888" width="50.373" height="5.033"/>
		<rect id="rect4632" x="423.864" y="1347.974" fill="#888888" width="53.265" height="5.323"/>
		<rect id="rect4634" x="499.402" y="1347.449" fill="#888888" width="53.265" height="5.323"/>
		<rect id="rect4636" x="427.659" y="1355.737" fill="#888888" width="50.117" height="5.008"/>
		<rect id="rect4638" x="498.738" y="1355.23" fill="#888888" width="50.117" height="5.008"/>
		<rect id="rect4640" x="431.471" y="1363.483" fill="#888888" width="46.969" height="4.693"/>
		<rect id="rect4642" x="498.075" y="1363.029" fill="#888888" width="46.967" height="4.694"/>
		<rect id="rect4644" x="435.283" y="1371.265" fill="#888888" width="36.313" height="4.488"/>
		<rect id="rect4646" x="486.779" y="1370.81" fill="#888888" width="36.311" height="4.488"/>
		<rect id="rect4648" x="438.43" y="1375.304" fill="#888888" width="33.702" height="4.165"/>
		<rect id="rect4650" x="486.236" y="1374.884" fill="#888888" width="33.702" height="4.166"/>
		<rect id="rect4652" x="444.656" y="1381.616" fill="#AAAAAA" width="28.561" height="3.529"/>
		<rect id="rect4654" x="485.152" y="1381.266" fill="#AAAAAA" width="28.561" height="3.53"/>
		<rect id="rect4656" x="444.656" y="1385.201" fill="#AAAAAA" width="28.561" height="3.53"/>
		<rect id="rect4658" x="485.152" y="1384.851" fill="#AAAAAA" width="28.561" height="3.529"/>
		<rect id="rect4660" x="441.594" y="1391.513" fill="#AAAAAA" width="33.936" height="4.39"/>
		<rect id="rect4662" x="489.716" y="1391.076" fill="#AAAAAA" width="33.936" height="4.39"/>
		<rect id="rect4664" x="441.594" y="1398.682" fill="#AAAAAA" width="33.936" height="4.39"/>
		<rect id="rect4666" x="489.716" y="1398.245" fill="#AAAAAA" width="33.936" height="4.39"/>
		<rect id="rect4668" x="441.594" y="1398.682" fill="#AAAAAA" width="33.936" height="4.39"/>
		<rect id="rect4670" x="489.716" y="1398.245" fill="#AAAAAA" width="33.936" height="4.39"/>
		<rect id="rect4672" x="441.594" y="1398.682" fill="#AAAAAA" width="33.936" height="4.39"/>
		<rect id="rect4674" x="489.716" y="1398.245" fill="#AAAAAA" width="33.936" height="4.39"/>
		<rect id="rect4676" x="441.594" y="1398.682" fill="#AAAAAA" width="33.936" height="4.39"/>
		<rect id="rect4678" x="489.716" y="1398.245" fill="#AAAAAA" width="33.936" height="4.39"/>
		<rect id="rect4680" x="441.594" y="1398.682" fill="#AAAAAA" width="33.936" height="4.39"/>
		<rect id="rect4682" x="489.716" y="1398.245" fill="#AAAAAA" width="33.936" height="4.39"/>
		<rect id="rect4684" x="441.594" y="1398.682" fill="#AAAAAA" width="33.936" height="4.39"/>
		<rect id="rect4686" x="489.716" y="1398.245" fill="#AAAAAA" width="33.936" height="4.39"/>
		<rect id="rect4688" x="441.594" y="1402.267" fill="#AAAAAA" width="33.936" height="4.39"/>
		<rect id="rect4690" x="489.716" y="1401.83" fill="#333333" width="33.936" height="4.39"/>
		<rect id="rect4692" x="441.594" y="1409.436" fill="#AAAAAA" width="33.936" height="4.39"/>
		<rect id="rect4694" x="489.716" y="1408.999" fill="#AAAAAA" width="33.936" height="4.39"/>
		<rect id="rect4696" x="441.594" y="1416.605" fill="#AAAAAA" width="33.936" height="4.39"/>
		<rect id="rect4698" x="489.716" y="1416.168" fill="#AAAAAA" width="33.936" height="4.39"/>
		<rect id="rect4700" x="441.594" y="1420.189" fill="#AAAAAA" width="33.936" height="4.39"/>
		<rect id="rect4702" x="489.716" y="1419.752" fill="#AAAAAA" width="33.936" height="4.39"/>
		<rect id="rect4704" x="441.594" y="1420.189" fill="#AAAAAA" width="33.936" height="4.39"/>
		<rect id="rect4706" x="489.716" y="1419.752" fill="#AAAAAA" width="33.936" height="4.39"/>
		<path id="path4708" fill="#EEEEEE" d="M406.099,1424.665c-11.564,0.643-20.273,9.435-20.273,21.476
			c0,13.759,11.341,26.538,25.356,28.577c1.217,0.178,2.432,0.266,3.607,0.275c3.498,15.218,31.911,57.865,31.911,57.865
			s70.143,9.24,67.374,1.859c-2.769-7.382-11.992-49.816-15.683-47.047c-3.691,2.769-27.655-0.012-36.885-1.857
			c-9.228-1.846-24.917-25.847-24.917-25.847l-1.201,0.93c0.766-2.266,1.201-4.752,1.201-7.377
			c0-13.761-11.392-26.594-25.409-28.633c-1.75-0.254-3.428-0.312-5.08-0.219V1424.665z M417.519,1474.829l-2.187,1.748
			l-0.381-1.584C415.831,1474.993,416.673,1474.919,417.519,1474.829L417.519,1474.829z"/>
		<path id="rect4713" fill="#333333" d="M467.032,1433.216h37.836c5.097,0,9.228,4.131,9.228,9.228v20.304
			c0,5.094-4.131,9.228-9.228,9.228h-37.836c-5.097,0-9.228-4.133-9.228-9.228v-20.304
			C457.804,1437.348,461.936,1433.216,467.032,1433.216z"/>
		<path id="path4715" fill="#CCCCCF" stroke="#000000" d="M311.08,1493.211c-10.642-3.549-15.256,79.196-6.459,85.82
			c6.254,4.711,58.136,6.461,58.136,6.461c41.785-22.671,56.361-18.847,35.989-67.366c-4.615-11.996-21.224-20.302-21.224-20.302
			l-66.448-4.617L311.08,1493.211z"/>
		<path id="path4717" fill="#EEEEEE" d="M291.701,1623.322l16.61,15.687c0,0,91.359,6.459,95.05,4.615
			c3.693-1.846,69.21-52.601,69.21-52.601l1.846-5.537l10.15,0.922l-5.535-11.072l-33.221,5.535l0.922,5.537l8.306-0.922
			l-0.924,6.459l-47.986,35.99l-76.594,2.769l-23.071-7.384H291.7L291.701,1623.322z"/>
		<path id="path4719" fill="none" stroke="#000000" stroke-width="5.1" d="M101.103,1564.184l-271.309-131.037"/>
		<g id="path4721" filter="url(#filter4735)">
			<line fill="none" stroke="#C1BBBB" stroke-width="3.5" x1="75.002" y1="1553.745" x2="-196.307" y2="1422.708"/>
		</g>
		<g id="path4739" filter="url(#filter4741)">
			<line fill="none" stroke="#A9A6A6" stroke-width="2.8" x1="-96.056" y1="1598.089" x2="197.389" y2="1603.632"/>
		</g>
		<g id="path4745" filter="url(#filter4751)">
			<line fill="none" stroke="#353131" x1="-103.452" y1="1611.938" x2="197.389" y2="1617.463"/>
		</g>
		<g id="path4755" filter="url(#filter5772)">
			<path fill="none" stroke="#828282" d="M-213.21,1465.232c52.12-115.907,211.14-184.106,307.906-102.906"/>
		</g>
		<path id="path4769" fill="none" stroke="#000000" stroke-width="11.631" stroke-linecap="round" d="M492.566,1574.536
			l58.001-183.304"/>
		<path id="path4773" fill="#333333" stroke="#4C4242" stroke-width="8.428" d="M128.961,1554.445l153.574-103.97"/>
		<path id="path4775" fill="#333333" stroke="#867979" stroke-width="1.228" d="M128.961,1554.445l153.574-103.97"/>
		
			<radialGradient id="path4777_1_" cx="29.8095" cy="391.7686" r="36.6948" gradientTransform="matrix(1.2088 0.7951 0.403 -0.6128 227.169 1692.7106)" gradientUnits="userSpaceOnUse">
			<stop  offset="0" style="stop-color:#666666"/>
			<stop  offset="1" style="stop-color:#666666;stop-opacity:0"/>
		</radialGradient>
		<path id="path4777" fill="url(#path4777_1_)" d="M406.099,1424.665c-11.564,0.643-20.273,9.435-20.273,21.476
			c0,13.759,11.341,26.538,25.356,28.577c1.217,0.178,2.432,0.266,3.607,0.275c3.498,15.218,31.911,57.865,31.911,57.865
			s70.143,9.24,67.374,1.859c-2.769-7.382-11.992-49.816-15.683-47.047c-3.691,2.769-27.655-0.012-36.885-1.857
			c-9.228-1.846-24.917-25.847-24.917-25.847l-1.201,0.93c0.766-2.266,1.201-4.752,1.201-7.377
			c0-13.761-11.392-26.594-25.409-28.633c-1.75-0.254-3.428-0.312-5.08-0.219V1424.665z M417.519,1474.829l-2.187,1.748
			l-0.381-1.584C415.831,1474.993,416.673,1474.919,417.519,1474.829L417.519,1474.829z"/>
		<g id="path5409" opacity="0.6053" filter="url(#filter5491)" enable-background="new    ">
			<polyline fill="none" stroke="#837C7C" stroke-width="9.7" points="71.327,1267.557 97.427,1293.657 94.818,1309.318 
				113.088,1296.268 113.088,1306.708 126.139,1296.268 157.461,1298.878 			"/>
		</g>
		<g id="path5495" opacity="0.9632" filter="url(#filter5497)" enable-background="new    ">
			<path fill="#013397" d="M300.155,1271.176c-8.113,3.761-1.856,12.865,9.279,11.058c64.085-10.396,197.536-22.516,204.147-24.338
				c16.548-4.553,45.875-32.174,9.279-34.548c-69.85-4.531-158.509,18.066-222.716,47.828H300.155z"/>
		</g>
		<path id="path5501" fill="none" stroke="#B0AAAA" stroke-width="0.7" d="M-121.83,1306.707
			c-17.799-26.996-55.175-149.51-18.27-104.404l23.49,28.711l-5.22,75.694V1306.707z"/>
		<path id="path5511" fill="none" stroke="#DDDDDD" stroke-width="18.261" d="M773.229,1529.791l-77.094-132.349"/>
		<g id="path5513" filter="url(#filter5531)">
			<line fill="none" stroke="#8D8383" stroke-width="6.661" x1="773.229" y1="1529.791" x2="696.135" y2="1397.441"/>
		</g>
		<path id="path5535" fill="#EEEEEE" stroke="#AAA4A4" d="M629.898,1263.64c0,0,7.83,35.237,14.355,33.931
			c6.527-1.304,78.303-40.456,78.303-40.456l-18.269-31.322L629.898,1263.64L629.898,1263.64z"/>
		
			<radialGradient id="path5561_1_" cx="283.9107" cy="801.1362" r="16.3878" gradientTransform="matrix(1.1196 2.7755 1.7324 -0.6988 -1077.0702 933.2217)" gradientUnits="userSpaceOnUse">
			<stop  offset="0" style="stop-color:#AAAAAA"/>
			<stop  offset="1" style="stop-color:#AAAAAA;stop-opacity:0"/>
		</radialGradient>
		<path id="path5561" fill="url(#path5561_1_)" stroke="#000000" stroke-width="0.2" d="M666.427,1246.661
			c0,0-28.938,10.696-26.417,1.977c1.293-4.479-54.677-52.493-14.763-119.432l25.468,5.219
			C623.251,1176.01,645.631,1211.971,666.427,1246.661L666.427,1246.661z"/>
		<g id="path5597" filter="url(#filter5627)">
			<line fill="none" stroke="#2A2C36" stroke-width="3.6" x1="287.965" y1="1304.084" x2="525.492" y2="1291.041"/>
		</g>
		<path id="path3880" fill="none" stroke="#000000" stroke-width="14.8" stroke-linecap="round" d="M616.836,1035.259
			l-23.489,31.322l2.609,7.83"/>
		<g id="g5691" transform="translate(-176.14 522.45)">
			<path id="path5689" fill="#EEEEEE" d="M881.716,665.162c0,26.848-9.056,48.613-20.228,48.613s-20.228-21.764-20.228-48.613
				c0-26.848,9.056-48.614,20.228-48.614S881.716,638.313,881.716,665.162z"/>
			<g id="g5682">
				<path id="path5641" opacity="0.9632" fill="#CCCCCF" enable-background="new    " d="M855.297,611.516
					c-14.234,0-25.792,24.768-25.792,55.299c0,30.532,11.558,55.244,25.792,55.244c14.232,0,25.79-24.712,25.79-55.244
					C881.087,636.283,869.529,611.516,855.297,611.516z M859.557,619.821c9.732,0,17.595,20.012,17.595,44.698
					s-7.865,44.697-17.595,44.697s-17.648-20.013-17.648-44.697C841.909,639.832,849.827,619.821,859.557,619.821z"/>
				
					<radialGradient id="path5644_1_" cx="846.9604" cy="1353.4696" r="12.7886" gradientTransform="matrix(0.7417 0.1943 0.4393 -1.677 -386.7495 2766.8149)" gradientUnits="userSpaceOnUse">
					<stop  offset="0" style="stop-color:#EEEEEE"/>
					<stop  offset="1" style="stop-color:#EEEEEE;stop-opacity:0"/>
				</radialGradient>
				<path id="path5644" fill="url(#path5644_1_)" d="M855.961,620.259c-12.343,0-22.364,20.85-22.364,46.552
					s10.021,46.505,22.364,46.505c12.343,0,22.364-20.805,22.364-46.505C878.325,641.109,868.304,620.259,855.961,620.259z
					 M859.656,627.251c8.437,0,15.257,16.846,15.257,37.627c0,20.782-6.818,37.628-15.257,37.628
					c-8.437,0-15.304-16.846-15.304-37.628C844.352,644.097,851.219,627.251,859.656,627.251z"/>
				
					<radialGradient id="path5646_1_" cx="946.2377" cy="1421.9135" r="7.836" gradientTransform="matrix(-3.1348 0.3571 0.274 2.4048 3449.9053 -3098.3679)" gradientUnits="userSpaceOnUse">
					<stop  offset="0" style="stop-color:#CCCCCF"/>
					<stop  offset="1" style="stop-color:#CCCCCF;stop-opacity:0"/>
				</radialGradient>
				<path id="path5646" fill="url(#path5646_1_)" d="M875.882,664.822c0,21.984-7.158,39.804-15.988,39.804
					c-8.828,0-15.986-17.821-15.986-39.804c0-21.983,7.158-39.803,15.986-39.803C868.724,625.019,875.882,642.84,875.882,664.822
					L875.882,664.822z"/>
				<g id="path5648" filter="url(#filter5654)">
					<path fill="#CCCCCF" d="M836.435,650.471c1.492-0.879,3.021-1.663,4.515-2.541c1.678-0.888,3.191-2.094,4.687-3.321
						c1.199-1.002,2.394-2.008,3.568-3.046c1.613-1.319,3.447-2.134,5.277-2.963c1.912-0.941,3.883-1.713,5.927-2.176
						c1.078-0.09,2.049-0.488,3.014-0.999c1.014-0.468,2.101-0.747,3.066-1.349c-0.016,1.316-0.025-0.035,3.226,0.427
						c0.092,0.013-0.182,0.042-0.273,0.074c-0.121,0.042-0.238,0.092-0.357,0.144c-0.553,0.246-0.693,0.334-1.277,0.641
						c-2.039,1.024-3.912,2.412-5.836,3.682c-1.5,1.107-2.865,2.418-4.34,3.563c-1.098,0.833-2.152,1.719-3.353,2.353
						c-0.812,0.527-1.703,0.829-2.564,1.221c-0.771,0.392-1.391,1.044-2.103,1.545c-0.951,0.655-2.045,0.883-3.088,1.259
						c-0.566,0.209-1.092,0.512-1.609,0.84l-3.342-0.407c0.531-0.335,1.045-0.683,1.621-0.916c1.035-0.375,2.117-0.59,3.088-1.169
						c0.736-0.489,1.348-1.135,2.094-1.61c0.867-0.389,1.766-0.675,2.58-1.206c1.221-0.575,2.266-1.448,3.359-2.282
						c1.496-1.138,2.891-2.421,4.371-3.588c1.937-1.24,3.791-2.66,5.818-3.71c0.965-0.551,5.472-3.017,5.34-0.457
						c-0.963,0.64-2.049,0.966-3.094,1.38c-0.99,0.499-1.924,1.066-3.045,1.087c-2.06,0.409-4.051,1.141-5.97,2.097
						c-1.799,0.817-3.596,1.604-5.203,2.863c-1.174,1.054-2.398,2.036-3.59,3.061c-1.514,1.224-3.01,2.491-4.709,3.373
						c-1.482,0.868-2.982,1.674-4.455,2.553L836.435,650.471L836.435,650.471z"/>
				</g>
				<g id="path5658" filter="url(#filter5654)">
					<path fill="#CCCCCF" d="M840.913,679.481c1.441-0.053,2.865-0.204,4.305-0.258c1.576-0.144,3.178,0.057,4.777,0.284
						c1.287,0.197,2.576,0.4,3.865,0.638c1.721,0.242,3.375-0.041,5.029-0.308c1.764-0.22,3.494-0.607,5.138-1.282
						c0.799-0.481,1.658-0.658,2.566-0.74c0.922-0.141,1.81-0.473,2.756-0.48c-0.598-1.061-0.002,0.04,2.078-2.006
						c0.059-0.058-0.148,0.059-0.223,0.08c-0.104,0.028-0.211,0.048-0.316,0.066c-0.498,0.086-0.635,0.086-1.184,0.136
						c-1.889,0.218-3.826,0.055-5.744,0.013c-1.547-0.128-3.092-0.491-4.64-0.661c-1.144-0.11-2.279-0.288-3.406-0.184
						c-0.805-0.01-1.566,0.202-2.346,0.327c-0.715,0.077-1.443-0.132-2.166-0.173c-0.961-0.043-1.832,0.335-2.734,0.567
						c-0.49,0.121-0.996,0.146-1.506,0.145l-2.166,2.049c0.523-0.001,1.039,0.017,1.547-0.09c0.896-0.228,1.752-0.61,2.691-0.638
						c0.738,0.017,1.455,0.228,2.191,0.229c0.783-0.129,1.543-0.36,2.353-0.348c1.115-0.161,2.238,0.01,3.377,0.126
						c1.56,0.154,3.113,0.477,4.672,0.665c1.914,0.009,3.851,0.209,5.744,0.018c0.924-0.047,5.191-0.365,3.957-2.375
						c-0.961-0.025-1.871,0.27-2.789,0.471c-0.918,0.103-1.828,0.124-2.625,0.682c-1.631,0.729-3.359,1.159-5.133,1.369
						c-1.627,0.262-3.242,0.547-4.933,0.351c-1.297-0.251-2.592-0.419-3.89-0.637c-1.609-0.214-3.226-0.474-4.814-0.317
						c-1.428,0.057-2.842,0.175-4.271,0.219L840.913,679.481L840.913,679.481z"/>
				</g>
			</g>
		</g>
		
			<radialGradient id="path5704_1_" cx="687.4585" cy="1920.0774" r="10.7" gradientTransform="matrix(-0.7365 3.3712 2.4985 0.5459 -3635.7402 -2224.0762)" gradientUnits="userSpaceOnUse">
			<stop  offset="0" style="stop-color:#CCCCCF"/>
			<stop  offset="1" style="stop-color:#EEEEEE"/>
		</radialGradient>
		<path id="path5704" fill="url(#path5704_1_)" d="M676.218,1133.791l-20.88-1.958c-24.003,38.209-21.362,74.937,4.566,114.844
			l15.661-2.61C644.618,1200,654.094,1152.844,676.218,1133.791L676.218,1133.791z"/>
		<path id="path5714" fill="#EEEEEE" d="M669.695,1133.739l-22.337-1.914c-25.675,37.34-22.849,73.234,4.885,112.236l16.755-2.55
			C635.893,1198.445,646.028,1152.361,669.695,1133.739L669.695,1133.739z"/>
		<path id="path5718" fill="none" stroke="#564343" stroke-width="0.1" d="M657.299,1133.126
			c-20.052,31.942-24.841,67.274,1.957,109.625"/>
		
			<radialGradient id="path5736_1_" cx="-90.2894" cy="36.3184" r="55.1509" gradientTransform="matrix(1.8043 -0.2692 -0.0437 -0.2932 504.6616 1627.1443)" gradientUnits="userSpaceOnUse">
			<stop  offset="0" style="stop-color:#666666"/>
			<stop  offset="1" style="stop-color:#666666;stop-opacity:0"/>
		</radialGradient>
		<path id="path5736" fill="url(#path5736_1_)" d="M291.701,1623.322l16.61,15.687c0,0,91.359,6.459,95.05,4.615
			c3.693-1.846,69.21-52.601,69.21-52.601l1.846-5.537l10.15,0.922l-5.535-11.072l-33.221,5.535l0.922,5.537l8.306-0.922
			l-0.924,6.459l-47.986,35.99l-76.594,2.769l-23.071-7.384H291.7L291.701,1623.322z"/>
		<path id="path2881" fill="#0169C9" stroke="#215090" stroke-width="0.8" d="M42.614,1447.641
			c-6.85-53.813,83.755-66.781,117.455-73.082c29.184-5.457,37.272,154.547,0,138.337
			C107.862,1490.188,47.502,1486.038,42.614,1447.641z"/>
		<g id="path5810" filter="url(#filter5772)">
			<path fill="none" stroke="#828282" d="M-213.21,1465.232c52.12-115.907,211.14-184.106,307.906-102.906"/>
		</g>
		<path id="path5812" opacity="0.4" fill="#013397" stroke="#215090" stroke-width="0.4509" enable-background="new    " d="
			M73.624,1446.155c-3.861-30.327,47.201-37.636,66.194-41.187c16.448-3.075,21.006,87.099,0,77.962
			C110.396,1470.134,76.378,1467.796,73.624,1446.155z"/>
		<g id="path5850" opacity="0.4211" filter="url(#filter5861)" enable-background="new    ">
			<path fill="#333333" d="M714.144,1727.712c-125.692,0-228.591,13.009-237.28,29.467c-28.657-0.832-59.962-1.279-92.797-1.279
				c-71.846,0-136.525,2.189-181.624,5.685c-21.576-11.374-97.189-19.765-187.132-19.765c-106.754,0-193.304,11.822-193.304,26.415
				c0,14.595,86.543,26.417,193.304,26.417c66.869,0,125.796-4.629,160.501-11.683c43.813,4.908,120.688,8.162,208.273,8.162
				c75.489,0,143.005-2.422,188.286-6.234c39.602,3.926,88.65,6.234,141.794,6.234c131.387,0,237.892-14.199,237.892-31.711
				c0-17.513-106.501-31.71-237.892-31.71L714.144,1727.712z"/>
			<path fill="none" stroke="#555555" stroke-width="0.4644" stroke-linecap="round" stroke-linejoin="round" d="M714.144,1727.712
				c-125.692,0-228.591,13.009-237.28,29.467c-28.657-0.832-59.962-1.279-92.797-1.279c-71.846,0-136.525,2.189-181.624,5.685
				c-21.576-11.374-97.189-19.765-187.132-19.765c-106.754,0-193.304,11.822-193.304,26.415c0,14.595,86.543,26.417,193.304,26.417
				c66.869,0,125.796-4.629,160.501-11.683c43.813,4.908,120.688,8.162,208.273,8.162c75.489,0,143.005-2.422,188.286-6.234
				c39.602,3.926,88.65,6.234,141.794,6.234c131.387,0,237.892-14.199,237.892-31.711c0-17.513-106.501-31.71-237.892-31.71
				L714.144,1727.712z"/>
		</g>
	</g>
</g>
<text transform="matrix(1.3328 0 0 1 94.8013 522.2184)" fill="#EE3324" font-family="'MyriadPro-Regular'" font-size="498.246">x</text>
</svg>
